<svg width="83" height="60" viewBox="0 0 83 60" fill="none" xmlns="http://www.w3.org/2000/svg">
<g clip-path="url(#clip0_61_228)">
<path d="M20.3685 57.8521C20.2175 58.9235 19.4883 59.6829 18.4103 59.8077C16.1552 60.0678 10.1035 60.0626 7.84844 59.8077C4.80697 59.4593 6.50998 54.8719 6.03085 52.7758C4.69239 51.902 3.35914 51.3195 3.16124 49.5147C3.61433 42.8261 2.55711 35.3521 3.16124 28.7623C3.30185 27.228 4.03097 25.8913 4.66114 24.5286C3.36956 22.9423 0.354121 21.7928 0.0833049 19.5719C-0.0937673 18.1364 -0.218759 15.7751 1.71341 15.7335L10.7962 16.3941L17.1551 3.94781C18.8269 1.84136 21.1341 0.499476 23.8474 0.255024C35.3103 0.868755 47.5907 -0.540746 58.9546 0.255024C62.0117 0.468269 64.7043 2.08061 66.2771 4.68117L72.1777 16.3941L81.2605 15.7335C83.2031 15.7335 83.0937 18.3393 82.875 19.728C82.5625 21.7408 79.5314 23.0567 78.3128 24.5286C78.9429 25.8861 79.6721 27.228 79.8127 28.7623C80.4168 35.3573 79.3596 42.8313 79.8179 49.5199C79.5367 51.3039 78.3492 51.9489 76.9431 52.7758C76.74 54.4974 77.1201 56.5154 76.9222 58.1954C76.8077 59.1576 76.0629 59.7037 75.1307 59.8077C72.8756 60.0626 66.8239 60.0678 64.5688 59.8077C63.5949 59.6985 62.6106 58.9027 62.6106 57.8521V52.6614H20.3685C20.207 54.2738 20.5872 56.2918 20.3685 57.8521ZM23.0558 4.89441C22.1913 5.01924 21.207 5.55495 20.6393 6.2259C19.5352 7.53138 17.6291 11.8951 16.7021 13.6947C15.6709 15.6971 12.744 20.7214 12.27 22.5418C11.7961 24.3622 12.8533 24.8147 14.4834 24.9343H68.6728C70.3601 24.7887 71.2091 24.2477 70.6622 22.4222C67.8811 17.5487 65.7406 11.8327 62.8762 7.05807C61.9805 5.56536 61.0847 4.97243 59.3035 4.8424L23.0506 4.89441H23.0558ZM13.5148 30.7595C11.5982 31.0196 9.62437 32.8244 9.34314 34.7592C8.53069 40.3192 15.2074 42.9925 18.3999 38.6964C21.0716 35.0973 17.952 30.1614 13.52 30.7595H13.5148ZM67.8603 30.7595C61.6784 31.6541 62.5013 41.5778 69.5008 40.7353C75.7973 39.9759 74.7349 29.7661 67.8603 30.7595ZM57.8505 42.4516C57.762 41.4322 58.2828 39.7887 56.9027 39.5702L25.6911 39.6846C24.8161 40.0851 25.2276 41.6663 25.139 42.4516H57.8505ZM57.8505 45.8584H25.139C25.2015 46.6853 24.8109 48.5369 25.9098 48.745L57.3401 48.6618C58.1682 47.9804 57.7672 46.7998 57.8505 45.8532V45.8584Z" fill="#F9F9F9"/>
</g>
<defs>
<clipPath id="clip0_61_228">
<rect width="83" height="60" fill="white"/>
</clipPath>
</defs>
</svg>
