<svg width="67" height="67" viewBox="0 0 67 67" fill="none" xmlns="http://www.w3.org/2000/svg">
<g clip-path="url(#clip0_61_244)">
<path d="M34.0191 0L66.0063 20.0209C68.058 22.068 66.7231 25.282 63.9199 25.5193H3.07017C1.48812 25.3809 0.583382 24.4365 0 23.0272V21.5883C0.36585 20.9109 0.637766 20.1247 1.36947 19.7539L32.971 0H34.0191ZM32.9413 9.58768C26.8059 10.2503 27.6019 19.9813 34.3355 19.0913C40.0754 18.3348 39.2646 8.90037 32.9413 9.58768Z" fill="#F9F9F9"/>
<path d="M62.1453 27.0868V55.8745H52.7914L52.5936 55.6768V34.3455C52.5936 34.0934 51.9114 32.9907 51.684 32.7731C50.3837 31.5172 48.0007 31.6458 46.9131 33.1143C46.829 33.228 46.3149 34.1576 46.3149 34.217V55.6768L46.1171 55.8745H36.8275L36.6297 55.6768V34.3455C36.6297 34.2862 36.3331 33.6681 36.2639 33.5346C35.1416 31.3936 31.9676 31.3441 30.7712 33.4555C30.6871 33.5989 30.3559 34.2664 30.3559 34.3455V55.6768L30.1581 55.8745H20.8685L20.6708 55.6768V34.217C20.6708 34.1527 20.1566 33.228 20.0725 33.1143C18.9849 31.6458 16.597 31.5172 15.3017 32.7731C15.0742 32.9907 14.392 34.0934 14.392 34.3455V55.6768L14.1942 55.8745H4.84033V27.0868H62.1453Z" fill="#F9F9F9"/>
<path d="M4.01963 57.4766L62.8523 57.4568C63.9053 57.6002 64.9436 58.6584 65.255 59.6325C65.5665 60.6066 65.5319 64.053 65.1759 64.9925C64.7854 66.0358 63.7175 66.8764 62.6001 66.9951L4.25694 66.9852C3.10995 66.7775 2.08162 65.927 1.72566 64.8095C1.42408 63.8651 1.43891 60.2456 1.82453 59.3408C2.16072 58.5546 3.15445 57.62 4.01963 57.4766Z" fill="#F9F9F9"/>
<path d="M33.2034 11.1551C37.3118 10.72 37.9644 17.2123 33.8214 17.5337C29.6784 17.8551 29.1148 11.5853 33.2034 11.1551Z" fill="#F9F9F9"/>
</g>
<defs>
<clipPath id="clip0_61_244">
<rect width="67" height="67" fill="white"/>
</clipPath>
</defs>
</svg>
