<svg width="83" height="74" viewBox="0 0 83 74" fill="none" xmlns="http://www.w3.org/2000/svg">
<g clip-path="url(#clip0_61_223)">
<path d="M82.9842 13.9697C82.9472 14.4992 83.0318 15.0659 82.9842 15.5901C82.836 17.2053 82.3439 19.8742 82.0053 21.5105C81.9577 21.7382 82.1323 21.7753 81.7672 21.7541L23.3296 9.1825C24.1392 5.51798 23.3666 -0.360076 28.7691 0.0159083L80.6983 11.1419C81.9312 11.7561 82.5133 12.7199 82.9842 13.9644V13.9697Z" fill="#F9F9F9"/>
<path d="M59.3529 26.2659L79.7404 30.5182L75.8301 48.4225C73.7665 52.4683 69.163 49.7675 65.803 49.4975C66.0729 51.7693 67.8508 54.8089 67.2529 57.033C66.5385 59.6914 63.8664 59.9879 61.6229 60.6446C45.7541 65.3206 29.6632 69.2763 13.7838 73.9205C11.408 74.2912 9.79418 73.3274 8.95814 71.1086L0.0422306 38.8322C-0.264667 36.7617 1.05817 34.8712 3.04771 34.2992L18.6096 30.0046L21.07 18.1902L43.6799 22.9085C46.9129 22.416 50.1142 20.9862 53.289 20.3508C57.739 19.4611 58.4428 22.8132 59.3529 26.2765V26.2659ZM57.0512 30.1899L55.3473 24.19C55.2098 23.8088 54.8764 23.4328 54.4372 23.4593L3.64563 37.6513L3.31757 37.9849L5.11663 44.6362L57.0512 30.1899ZM66.5703 32.1704C65.8665 32.3293 65.639 33.0548 65.4591 33.6532C65.1152 34.7758 64.1998 39.0123 64.3585 39.9973C64.5172 40.9822 65.3162 41.1199 66.0993 41.337C67.2952 41.6706 70.4647 42.4438 71.5865 42.5126C72.8088 42.5868 73.2321 41.7289 73.5125 40.7386C73.8512 39.526 74.6555 36.248 74.719 35.1148C74.7825 33.9815 73.957 33.5261 73.0469 33.2507C71.8669 32.8906 69.1789 32.2816 67.9831 32.1545C67.5651 32.1122 66.9777 32.0804 66.5756 32.1704H66.5703ZM58.9825 37.3442L6.9686 51.6104L12.2441 70.4202L12.879 70.7326L63.8611 56.5617L63.9828 55.3014L58.9825 37.3495V37.3442Z" fill="#F9F9F9"/>
<path d="M20.8585 56.3606C21.1865 56.7312 22.6999 61.995 22.8163 62.7576C23.0015 63.9808 22.6628 64.521 21.5569 64.987C20.8426 65.2836 15.71 66.7134 15.1967 66.6604C14.2972 66.5651 13.9321 65.8608 13.6623 65.1088C13.276 64.0285 12.059 59.755 12.1542 58.823C12.2071 58.3252 12.3447 58.0816 12.7521 57.7956C13.3024 57.4091 18.4192 55.9634 19.2552 55.8628C19.8161 55.7939 20.4775 55.9263 20.8638 56.3606H20.8585Z" fill="#F9F9F9"/>
</g>
<defs>
<clipPath id="clip0_61_223">
<rect width="83" height="74" fill="white"/>
</clipPath>
</defs>
</svg>
