<svg width="67" height="59" viewBox="0 0 67 59" fill="none" xmlns="http://www.w3.org/2000/svg">
<g clip-path="url(#clip0_61_250)">
<path d="M0 56.4987L11.7846 17.3643C11.9398 17.0537 12.0786 16.5674 12.3114 16.3181C12.4053 16.2159 13.2383 15.7296 13.2955 15.7296H25.6722C21.3642 10.0164 24.5533 1.53232 31.5604 0.191877C40.4867 -1.51229 46.7056 8.41845 41.3891 15.7296H53.7658C53.8229 15.7296 54.656 16.2159 54.7499 16.3181C54.9826 16.5674 55.1215 17.0537 55.2766 17.3643C58.6617 30.1394 63.4475 42.8164 66.7305 55.5833C67.1756 57.3161 67.2899 58.587 65.1666 58.9998H1.8906C0.882009 58.9017 0.449171 58.3991 0 57.5531V56.5028V56.4987ZM32.8467 3.9721C25.3169 4.79761 26.3827 16.3017 33.9859 15.7296C41.7484 15.1452 40.8052 3.09754 32.8467 3.9721ZM35.5172 27.9039C35.362 26.7556 35.8275 25.219 35.0313 24.2586C34.2922 23.3677 32.7772 23.4126 32.0341 24.2627C31.2296 25.1822 31.7033 26.776 31.5441 27.9039C26.4276 29.6939 26.3337 37.1031 31.4746 38.9626C32.5772 39.359 34.3289 39.1424 35.0313 39.9925C36.3461 41.5781 34.823 43.5111 32.8385 43.1025C32.079 42.9472 31.7809 42.044 30.7192 42.0767C29.9842 42.1012 29.0124 42.7469 28.845 43.4866C28.4489 45.2316 30.1557 46.3064 31.5441 46.8214C31.5767 48.3457 31.1684 50.9367 33.3326 51.1329C35.803 51.3576 35.5499 48.4724 35.5172 46.8214C40.8705 44.9783 40.6132 36.9887 35.0803 35.6156C34.2922 35.4194 33.4102 35.493 32.7364 35.2069C30.5763 34.2874 31.5808 31.0793 34.2187 31.6269C34.9782 31.7863 35.2763 32.6854 36.3379 32.6527C37.126 32.6282 38.106 31.9334 38.2326 31.1324C38.5144 29.4119 36.881 28.427 35.509 27.908L35.5172 27.9039Z" fill="#F9F9F9"/>
</g>
<defs>
<clipPath id="clip0_61_250">
<rect width="67" height="59" fill="white"/>
</clipPath>
</defs>
</svg>
