<svg width="141" height="142" viewBox="0 0 141 142" fill="none" xmlns="http://www.w3.org/2000/svg">
<path d="M70.47 141.16C31.61 141.16 0 109.55 0 70.69C0 31.83 31.61 0.219971 70.47 0.219971C109.33 0.219971 140.94 31.83 140.94 70.69C140.94 109.55 109.33 141.16 70.47 141.16ZM70.47 36.15C51.42 36.15 35.93 51.64 35.93 70.69C35.93 89.74 51.43 105.23 70.47 105.23C89.51 105.23 105.01 89.74 105.01 70.69C105.01 51.64 89.52 36.15 70.47 36.15Z" fill="#E60000"/>
<path d="M104.98 72.02C104.28 90.45 89.07 105.23 70.47 105.23C51.87 105.23 35.93 89.7399 35.93 70.6899C35.93 55.0899 46.33 41.88 60.55 37.61V0.929932C26.37 5.76993 0 35.1999 0 70.6899C0 109.55 31.61 141.16 70.47 141.16C109.33 141.16 140.62 109.85 140.93 71.2499C130.71 71.5299 117.62 71.84 104.98 72.02Z" fill="#C0C0C0"/>
<path d="M104.766 39.08C104.926 39.08 105.052 39.126 105.144 39.218C105.24 39.306 105.288 39.424 105.288 39.572V40.46H99.336V39.968C99.336 39.868 99.356 39.764 99.396 39.656C99.44 39.544 99.508 39.444 99.6 39.356L102.234 36.716C102.454 36.492 102.65 36.278 102.822 36.074C102.998 35.87 103.144 35.668 103.26 35.468C103.376 35.268 103.464 35.066 103.524 34.862C103.588 34.654 103.62 34.436 103.62 34.208C103.62 34 103.59 33.818 103.53 33.662C103.47 33.502 103.384 33.368 103.272 33.26C103.164 33.152 103.032 33.072 102.876 33.02C102.724 32.964 102.552 32.936 102.36 32.936C102.184 32.936 102.02 32.962 101.868 33.014C101.72 33.062 101.588 33.132 101.472 33.224C101.356 33.312 101.258 33.416 101.178 33.536C101.098 33.656 101.038 33.788 100.998 33.932C100.93 34.116 100.842 34.238 100.734 34.298C100.626 34.358 100.47 34.372 100.266 34.34L99.486 34.202C99.546 33.786 99.662 33.422 99.834 33.11C100.006 32.794 100.22 32.532 100.476 32.324C100.736 32.112 101.032 31.954 101.364 31.85C101.7 31.742 102.06 31.688 102.444 31.688C102.844 31.688 103.21 31.748 103.542 31.868C103.874 31.984 104.158 32.15 104.394 32.366C104.63 32.582 104.814 32.842 104.946 33.146C105.078 33.45 105.144 33.788 105.144 34.16C105.144 34.48 105.096 34.776 105 35.048C104.908 35.32 104.782 35.58 104.622 35.828C104.466 36.076 104.282 36.316 104.07 36.548C103.858 36.78 103.636 37.016 103.404 37.256L101.448 39.254C101.636 39.198 101.822 39.156 102.006 39.128C102.194 39.096 102.372 39.08 102.54 39.08H104.766ZM108.973 34.934L108.673 35.306C108.841 35.222 109.021 35.158 109.213 35.114C109.409 35.066 109.619 35.042 109.843 35.042C110.171 35.042 110.489 35.096 110.797 35.204C111.109 35.312 111.383 35.476 111.619 35.696C111.855 35.912 112.045 36.182 112.189 36.506C112.333 36.83 112.405 37.208 112.405 37.64C112.405 38.044 112.331 38.424 112.183 38.78C112.035 39.132 111.827 39.44 111.559 39.704C111.291 39.968 110.967 40.176 110.587 40.328C110.211 40.48 109.795 40.556 109.339 40.556C108.875 40.556 108.459 40.482 108.091 40.334C107.723 40.186 107.409 39.98 107.149 39.716C106.889 39.448 106.689 39.128 106.549 38.756C106.413 38.38 106.345 37.964 106.345 37.508C106.345 37.1 106.427 36.682 106.591 36.254C106.759 35.822 107.017 35.374 107.365 34.91L109.435 32.132C109.507 32.036 109.611 31.954 109.747 31.886C109.887 31.818 110.047 31.784 110.227 31.784H111.547L108.973 34.934ZM109.309 39.344C109.545 39.344 109.761 39.304 109.957 39.224C110.157 39.144 110.327 39.032 110.467 38.888C110.611 38.744 110.723 38.576 110.803 38.384C110.883 38.188 110.923 37.976 110.923 37.748C110.923 37.5 110.885 37.278 110.809 37.082C110.733 36.882 110.625 36.714 110.485 36.578C110.345 36.438 110.177 36.332 109.981 36.26C109.785 36.188 109.569 36.152 109.333 36.152C109.097 36.152 108.883 36.192 108.691 36.272C108.499 36.352 108.335 36.464 108.199 36.608C108.063 36.748 107.957 36.916 107.881 37.112C107.805 37.304 107.767 37.512 107.767 37.736C107.767 37.976 107.799 38.196 107.863 38.396C107.931 38.592 108.029 38.76 108.157 38.9C108.289 39.04 108.451 39.15 108.643 39.23C108.835 39.306 109.057 39.344 109.309 39.344ZM117.272 33.884C117.272 34.212 117.216 34.508 117.104 34.772C116.996 35.036 116.85 35.262 116.666 35.45C116.482 35.634 116.268 35.776 116.024 35.876C115.78 35.976 115.526 36.026 115.262 36.026C114.974 36.026 114.708 35.976 114.464 35.876C114.22 35.776 114.008 35.634 113.828 35.45C113.652 35.262 113.514 35.036 113.414 34.772C113.314 34.508 113.264 34.212 113.264 33.884C113.264 33.548 113.314 33.244 113.414 32.972C113.514 32.7 113.652 32.47 113.828 32.282C114.008 32.094 114.22 31.95 114.464 31.85C114.708 31.746 114.974 31.694 115.262 31.694C115.55 31.694 115.816 31.746 116.06 31.85C116.308 31.95 116.522 32.094 116.702 32.282C116.882 32.47 117.022 32.7 117.122 32.972C117.222 33.244 117.272 33.548 117.272 33.884ZM116.132 33.884C116.132 33.652 116.108 33.458 116.06 33.302C116.016 33.146 115.954 33.02 115.874 32.924C115.798 32.828 115.706 32.76 115.598 32.72C115.494 32.676 115.382 32.654 115.262 32.654C115.142 32.654 115.03 32.676 114.926 32.72C114.822 32.76 114.732 32.828 114.656 32.924C114.584 33.02 114.526 33.146 114.482 33.302C114.438 33.458 114.416 33.652 114.416 33.884C114.416 34.108 114.438 34.296 114.482 34.448C114.526 34.596 114.584 34.716 114.656 34.808C114.732 34.9 114.822 34.966 114.926 35.006C115.03 35.046 115.142 35.066 115.262 35.066C115.382 35.066 115.494 35.046 115.598 35.006C115.706 34.966 115.798 34.9 115.874 34.808C115.954 34.716 116.016 34.596 116.06 34.448C116.108 34.296 116.132 34.108 116.132 33.884ZM120.158 32.018C120.21 31.958 120.27 31.904 120.338 31.856C120.41 31.808 120.51 31.784 120.638 31.784H121.718L115.274 40.238C115.222 40.302 115.16 40.356 115.088 40.4C115.016 40.44 114.928 40.46 114.824 40.46H113.72L120.158 32.018ZM122.174 38.42C122.174 38.748 122.118 39.044 122.006 39.308C121.898 39.572 121.752 39.798 121.568 39.986C121.384 40.17 121.17 40.314 120.926 40.418C120.682 40.518 120.428 40.568 120.164 40.568C119.876 40.568 119.61 40.518 119.366 40.418C119.122 40.314 118.91 40.17 118.73 39.986C118.554 39.798 118.416 39.572 118.316 39.308C118.216 39.044 118.166 38.748 118.166 38.42C118.166 38.084 118.216 37.78 118.316 37.508C118.416 37.236 118.554 37.006 118.73 36.818C118.91 36.63 119.122 36.486 119.366 36.386C119.61 36.282 119.876 36.23 120.164 36.23C120.452 36.23 120.718 36.282 120.962 36.386C121.21 36.486 121.422 36.63 121.598 36.818C121.778 37.006 121.918 37.236 122.018 37.508C122.122 37.78 122.174 38.084 122.174 38.42ZM121.028 38.42C121.028 38.188 121.006 37.994 120.962 37.838C120.918 37.682 120.856 37.556 120.776 37.46C120.7 37.364 120.608 37.296 120.5 37.256C120.396 37.212 120.284 37.19 120.164 37.19C120.044 37.19 119.932 37.212 119.828 37.256C119.724 37.296 119.634 37.364 119.558 37.46C119.482 37.556 119.422 37.682 119.378 37.838C119.338 37.994 119.318 38.188 119.318 38.42C119.318 38.644 119.338 38.832 119.378 38.984C119.422 39.136 119.482 39.258 119.558 39.35C119.634 39.442 119.724 39.508 119.828 39.548C119.932 39.588 120.044 39.608 120.164 39.608C120.284 39.608 120.396 39.588 120.5 39.548C120.608 39.508 120.7 39.442 120.776 39.35C120.856 39.258 120.918 39.136 120.962 38.984C121.006 38.832 121.028 38.644 121.028 38.42Z" fill="white"/>
<path d="M27.552 103.324V103.966C27.552 104.158 27.532 104.314 27.492 104.434C27.452 104.55 27.412 104.648 27.372 104.728L24.084 111.496C24.016 111.636 23.92 111.756 23.796 111.856C23.672 111.952 23.506 112 23.298 112H22.224L25.578 105.37C25.654 105.234 25.728 105.11 25.8 104.998C25.876 104.882 25.96 104.772 26.052 104.668H21.9C21.808 104.668 21.728 104.634 21.66 104.566C21.592 104.498 21.558 104.418 21.558 104.326V103.324H27.552ZM32.2329 108.73V105.892C32.2329 105.624 32.2509 105.328 32.2869 105.004L29.5929 108.73H32.2329ZM34.6149 108.73V109.588C34.6149 109.668 34.5889 109.738 34.5369 109.798C34.4849 109.854 34.4109 109.882 34.3149 109.882H33.5229V112H32.2329V109.882H28.5729C28.4729 109.882 28.3849 109.852 28.3089 109.792C28.2329 109.728 28.1849 109.65 28.1649 109.558L28.0089 108.808L32.1189 103.318H33.5229V108.73H34.6149ZM39.3919 105.424C39.3919 105.752 39.3359 106.048 39.2239 106.312C39.1159 106.576 38.9699 106.802 38.7859 106.99C38.6019 107.174 38.3879 107.316 38.1439 107.416C37.8999 107.516 37.6459 107.566 37.3819 107.566C37.0939 107.566 36.8279 107.516 36.5839 107.416C36.3399 107.316 36.1279 107.174 35.9479 106.99C35.7719 106.802 35.6339 106.576 35.5339 106.312C35.4339 106.048 35.3839 105.752 35.3839 105.424C35.3839 105.088 35.4339 104.784 35.5339 104.512C35.6339 104.24 35.7719 104.01 35.9479 103.822C36.1279 103.634 36.3399 103.49 36.5839 103.39C36.8279 103.286 37.0939 103.234 37.3819 103.234C37.6699 103.234 37.9359 103.286 38.1799 103.39C38.4279 103.49 38.6419 103.634 38.8219 103.822C39.0019 104.01 39.1419 104.24 39.2419 104.512C39.3419 104.784 39.3919 105.088 39.3919 105.424ZM38.2519 105.424C38.2519 105.192 38.2279 104.998 38.1799 104.842C38.1359 104.686 38.0739 104.56 37.9939 104.464C37.9179 104.368 37.8259 104.3 37.7179 104.26C37.6139 104.216 37.5019 104.194 37.3819 104.194C37.2619 104.194 37.1499 104.216 37.0459 104.26C36.9419 104.3 36.8519 104.368 36.7759 104.464C36.7039 104.56 36.6459 104.686 36.6019 104.842C36.5579 104.998 36.5359 105.192 36.5359 105.424C36.5359 105.648 36.5579 105.836 36.6019 105.988C36.6459 106.136 36.7039 106.256 36.7759 106.348C36.8519 106.44 36.9419 106.506 37.0459 106.546C37.1499 106.586 37.2619 106.606 37.3819 106.606C37.5019 106.606 37.6139 106.586 37.7179 106.546C37.8259 106.506 37.9179 106.44 37.9939 106.348C38.0739 106.256 38.1359 106.136 38.1799 105.988C38.2279 105.836 38.2519 105.648 38.2519 105.424ZM42.2779 103.558C42.3299 103.498 42.3899 103.444 42.4579 103.396C42.5299 103.348 42.6299 103.324 42.7579 103.324H43.8379L37.3939 111.778C37.3419 111.842 37.2799 111.896 37.2079 111.94C37.1359 111.98 37.0479 112 36.9439 112H35.8399L42.2779 103.558ZM44.2939 109.96C44.2939 110.288 44.2379 110.584 44.1259 110.848C44.0179 111.112 43.8719 111.338 43.6879 111.526C43.5039 111.71 43.2899 111.854 43.0459 111.958C42.8019 112.058 42.5479 112.108 42.2839 112.108C41.9959 112.108 41.7299 112.058 41.4859 111.958C41.2419 111.854 41.0299 111.71 40.8499 111.526C40.6739 111.338 40.5359 111.112 40.4359 110.848C40.3359 110.584 40.2859 110.288 40.2859 109.96C40.2859 109.624 40.3359 109.32 40.4359 109.048C40.5359 108.776 40.6739 108.546 40.8499 108.358C41.0299 108.17 41.2419 108.026 41.4859 107.926C41.7299 107.822 41.9959 107.77 42.2839 107.77C42.5719 107.77 42.8379 107.822 43.0819 107.926C43.3299 108.026 43.5419 108.17 43.7179 108.358C43.8979 108.546 44.0379 108.776 44.1379 109.048C44.2419 109.32 44.2939 109.624 44.2939 109.96ZM43.1479 109.96C43.1479 109.728 43.1259 109.534 43.0819 109.378C43.0379 109.222 42.9759 109.096 42.8959 109C42.8199 108.904 42.7279 108.836 42.6199 108.796C42.5159 108.752 42.4039 108.73 42.2839 108.73C42.1639 108.73 42.0519 108.752 41.9479 108.796C41.8439 108.836 41.7539 108.904 41.6779 109C41.6019 109.096 41.5419 109.222 41.4979 109.378C41.4579 109.534 41.4379 109.728 41.4379 109.96C41.4379 110.184 41.4579 110.372 41.4979 110.524C41.5419 110.676 41.6019 110.798 41.6779 110.89C41.7539 110.982 41.8439 111.048 41.9479 111.088C42.0519 111.128 42.1639 111.148 42.2839 111.148C42.4039 111.148 42.5159 111.128 42.6199 111.088C42.7279 111.048 42.8199 110.982 42.8959 110.89C42.9759 110.798 43.0379 110.676 43.0819 110.524C43.1259 110.372 43.1479 110.184 43.1479 109.96Z" fill="white"/>
</svg>
