<svg width="144" height="144" viewBox="0 0 144 144" fill="none" xmlns="http://www.w3.org/2000/svg">
<path d="M46.33 48.2801C52.46 41.7101 61.09 37.4701 70.76 37.1301C90.1 36.4501 106.38 51.6401 107.05 70.9701C107.39 80.6401 103.76 89.5401 97.63 96.1101L124.31 120.99C136.81 107.58 144.21 89.4101 143.52 69.6901C142.14 30.2401 108.92 -0.739925 69.47 0.640075C49.74 1.33008 32.14 9.98008 19.63 23.3901L46.31 48.2701L46.33 48.2801Z" fill="#E60000"/>
<path d="M98.74 94.63C92.3 102.48 82.53 107.5 71.6 107.5C52.25 107.5 36.51 91.76 36.51 72.41C36.51 61.48 41.53 51.71 49.38 45.27L23.52 19.41C9.08 32.52 0 51.42 0 72.41C0 111.89 32.12 144 71.59 144C92.58 144 111.49 134.92 124.59 120.48L98.73 94.62L98.74 94.63Z" fill="#C0C0C0"/>
<path d="M103.802 39.38V36.542C103.802 36.274 103.82 35.978 103.856 35.654L101.162 39.38H103.802ZM106.184 39.38V40.238C106.184 40.318 106.158 40.388 106.106 40.448C106.054 40.504 105.98 40.532 105.884 40.532H105.092V42.65H103.802V40.532H100.142C100.042 40.532 99.954 40.502 99.878 40.442C99.802 40.378 99.754 40.3 99.734 40.208L99.578 39.458L103.688 33.968H105.092V39.38H106.184ZM108.471 36.578C108.471 37.062 108.595 37.432 108.843 37.688C109.095 37.94 109.451 38.066 109.911 38.066C110.151 38.066 110.365 38.028 110.553 37.952C110.741 37.876 110.899 37.772 111.027 37.64C111.155 37.508 111.251 37.352 111.315 37.172C111.383 36.992 111.417 36.798 111.417 36.59C111.417 36.354 111.381 36.144 111.309 35.96C111.237 35.772 111.135 35.614 111.003 35.486C110.871 35.358 110.713 35.26 110.529 35.192C110.349 35.124 110.151 35.09 109.935 35.09C109.711 35.09 109.509 35.128 109.329 35.204C109.149 35.276 108.995 35.378 108.867 35.51C108.739 35.642 108.641 35.8 108.573 35.984C108.505 36.164 108.471 36.362 108.471 36.578ZM110.439 39.284C110.507 39.2 110.571 39.118 110.631 39.038C110.691 38.958 110.749 38.878 110.805 38.798C110.605 38.926 110.385 39.024 110.145 39.092C109.905 39.156 109.653 39.188 109.389 39.188C109.089 39.188 108.795 39.136 108.507 39.032C108.219 38.928 107.963 38.772 107.739 38.564C107.515 38.352 107.333 38.092 107.193 37.784C107.057 37.472 106.989 37.108 106.989 36.692C106.989 36.304 107.061 35.94 107.205 35.6C107.349 35.26 107.551 34.962 107.811 34.706C108.071 34.45 108.383 34.248 108.747 34.1C109.111 33.952 109.513 33.878 109.953 33.878C110.397 33.878 110.795 33.948 111.147 34.088C111.503 34.228 111.805 34.424 112.053 34.676C112.305 34.928 112.497 35.23 112.629 35.582C112.765 35.934 112.833 36.32 112.833 36.74C112.833 37.008 112.809 37.262 112.761 37.502C112.717 37.742 112.653 37.974 112.569 38.198C112.485 38.418 112.383 38.634 112.263 38.846C112.143 39.058 112.009 39.268 111.861 39.476L109.875 42.308C109.807 42.404 109.705 42.486 109.569 42.554C109.433 42.618 109.279 42.65 109.107 42.65H107.745L110.439 39.284ZM117.922 36.074C117.922 36.402 117.866 36.698 117.754 36.962C117.646 37.226 117.5 37.452 117.316 37.64C117.132 37.824 116.918 37.966 116.674 38.066C116.43 38.166 116.176 38.216 115.912 38.216C115.624 38.216 115.358 38.166 115.114 38.066C114.87 37.966 114.658 37.824 114.478 37.64C114.302 37.452 114.164 37.226 114.064 36.962C113.964 36.698 113.914 36.402 113.914 36.074C113.914 35.738 113.964 35.434 114.064 35.162C114.164 34.89 114.302 34.66 114.478 34.472C114.658 34.284 114.87 34.14 115.114 34.04C115.358 33.936 115.624 33.884 115.912 33.884C116.2 33.884 116.466 33.936 116.71 34.04C116.958 34.14 117.172 34.284 117.352 34.472C117.532 34.66 117.672 34.89 117.772 35.162C117.872 35.434 117.922 35.738 117.922 36.074ZM116.782 36.074C116.782 35.842 116.758 35.648 116.71 35.492C116.666 35.336 116.604 35.21 116.524 35.114C116.448 35.018 116.356 34.95 116.248 34.91C116.144 34.866 116.032 34.844 115.912 34.844C115.792 34.844 115.68 34.866 115.576 34.91C115.472 34.95 115.382 35.018 115.306 35.114C115.234 35.21 115.176 35.336 115.132 35.492C115.088 35.648 115.066 35.842 115.066 36.074C115.066 36.298 115.088 36.486 115.132 36.638C115.176 36.786 115.234 36.906 115.306 36.998C115.382 37.09 115.472 37.156 115.576 37.196C115.68 37.236 115.792 37.256 115.912 37.256C116.032 37.256 116.144 37.236 116.248 37.196C116.356 37.156 116.448 37.09 116.524 36.998C116.604 36.906 116.666 36.786 116.71 36.638C116.758 36.486 116.782 36.298 116.782 36.074ZM120.808 34.208C120.86 34.148 120.92 34.094 120.988 34.046C121.06 33.998 121.16 33.974 121.288 33.974H122.368L115.924 42.428C115.872 42.492 115.81 42.546 115.738 42.59C115.666 42.63 115.578 42.65 115.474 42.65H114.37L120.808 34.208ZM122.824 40.61C122.824 40.938 122.768 41.234 122.656 41.498C122.548 41.762 122.402 41.988 122.218 42.176C122.034 42.36 121.82 42.504 121.576 42.608C121.332 42.708 121.078 42.758 120.814 42.758C120.526 42.758 120.26 42.708 120.016 42.608C119.772 42.504 119.56 42.36 119.38 42.176C119.204 41.988 119.066 41.762 118.966 41.498C118.866 41.234 118.816 40.938 118.816 40.61C118.816 40.274 118.866 39.97 118.966 39.698C119.066 39.426 119.204 39.196 119.38 39.008C119.56 38.82 119.772 38.676 120.016 38.576C120.26 38.472 120.526 38.42 120.814 38.42C121.102 38.42 121.368 38.472 121.612 38.576C121.86 38.676 122.072 38.82 122.248 39.008C122.428 39.196 122.568 39.426 122.668 39.698C122.772 39.97 122.824 40.274 122.824 40.61ZM121.678 40.61C121.678 40.378 121.656 40.184 121.612 40.028C121.568 39.872 121.506 39.746 121.426 39.65C121.35 39.554 121.258 39.486 121.15 39.446C121.046 39.402 120.934 39.38 120.814 39.38C120.694 39.38 120.582 39.402 120.478 39.446C120.374 39.486 120.284 39.554 120.208 39.65C120.132 39.746 120.072 39.872 120.028 40.028C119.988 40.184 119.968 40.378 119.968 40.61C119.968 40.834 119.988 41.022 120.028 41.174C120.072 41.326 120.132 41.448 120.208 41.54C120.284 41.632 120.374 41.698 120.478 41.738C120.582 41.778 120.694 41.798 120.814 41.798C120.934 41.798 121.046 41.778 121.15 41.738C121.258 41.698 121.35 41.632 121.426 41.54C121.506 41.448 121.568 41.326 121.612 41.174C121.656 41.022 121.678 40.834 121.678 40.61Z" fill="white"/>
<path d="M24.336 104.934C24.528 104.894 24.712 104.866 24.888 104.85C25.064 104.83 25.234 104.82 25.398 104.82C25.854 104.82 26.256 104.888 26.604 105.024C26.952 105.16 27.244 105.348 27.48 105.588C27.716 105.828 27.894 106.11 28.014 106.434C28.134 106.754 28.194 107.1 28.194 107.472C28.194 107.932 28.112 108.352 27.948 108.732C27.788 109.112 27.564 109.438 27.276 109.71C26.988 109.978 26.646 110.186 26.25 110.334C25.858 110.482 25.43 110.556 24.966 110.556C24.694 110.556 24.436 110.528 24.192 110.472C23.948 110.416 23.718 110.342 23.502 110.25C23.29 110.154 23.092 110.046 22.908 109.926C22.728 109.802 22.566 109.672 22.422 109.536L22.878 108.906C22.974 108.77 23.1 108.702 23.256 108.702C23.356 108.702 23.458 108.734 23.562 108.798C23.666 108.862 23.784 108.932 23.916 109.008C24.052 109.084 24.21 109.154 24.39 109.218C24.574 109.282 24.794 109.314 25.05 109.314C25.322 109.314 25.562 109.27 25.77 109.182C25.978 109.094 26.15 108.972 26.286 108.816C26.426 108.656 26.53 108.468 26.598 108.252C26.67 108.032 26.706 107.794 26.706 107.538C26.706 107.066 26.568 106.698 26.292 106.434C26.02 106.166 25.616 106.032 25.08 106.032C24.668 106.032 24.246 106.108 23.814 106.26L22.89 105.996L23.61 101.784H27.894V102.414C27.894 102.626 27.828 102.798 27.696 102.93C27.564 103.062 27.34 103.128 27.024 103.128H24.642L24.336 104.934ZM35.071 109.35V110.46H30.271V109.35H32.029V104.292C32.029 104.092 32.035 103.886 32.047 103.674L30.799 104.718C30.727 104.774 30.655 104.81 30.583 104.826C30.515 104.838 30.449 104.838 30.385 104.826C30.325 104.814 30.271 104.794 30.223 104.766C30.175 104.734 30.139 104.7 30.115 104.664L29.647 104.022L32.293 101.772H33.511V109.35H35.071ZM40.2919 103.884C40.2919 104.212 40.2359 104.508 40.1239 104.772C40.0159 105.036 39.8699 105.262 39.6859 105.45C39.5019 105.634 39.2879 105.776 39.0439 105.876C38.7999 105.976 38.5459 106.026 38.2819 106.026C37.9939 106.026 37.7279 105.976 37.4839 105.876C37.2399 105.776 37.0279 105.634 36.8479 105.45C36.6719 105.262 36.5339 105.036 36.4339 104.772C36.3339 104.508 36.2839 104.212 36.2839 103.884C36.2839 103.548 36.3339 103.244 36.4339 102.972C36.5339 102.7 36.6719 102.47 36.8479 102.282C37.0279 102.094 37.2399 101.95 37.4839 101.85C37.7279 101.746 37.9939 101.694 38.2819 101.694C38.5699 101.694 38.8359 101.746 39.0799 101.85C39.3279 101.95 39.5419 102.094 39.7219 102.282C39.9019 102.47 40.0419 102.7 40.1419 102.972C40.2419 103.244 40.2919 103.548 40.2919 103.884ZM39.1519 103.884C39.1519 103.652 39.1279 103.458 39.0799 103.302C39.0359 103.146 38.9739 103.02 38.8939 102.924C38.8179 102.828 38.7259 102.76 38.6179 102.72C38.5139 102.676 38.4019 102.654 38.2819 102.654C38.1619 102.654 38.0499 102.676 37.9459 102.72C37.8419 102.76 37.7519 102.828 37.6759 102.924C37.6039 103.02 37.5459 103.146 37.5019 103.302C37.4579 103.458 37.4359 103.652 37.4359 103.884C37.4359 104.108 37.4579 104.296 37.5019 104.448C37.5459 104.596 37.6039 104.716 37.6759 104.808C37.7519 104.9 37.8419 104.966 37.9459 105.006C38.0499 105.046 38.1619 105.066 38.2819 105.066C38.4019 105.066 38.5139 105.046 38.6179 105.006C38.7259 104.966 38.8179 104.9 38.8939 104.808C38.9739 104.716 39.0359 104.596 39.0799 104.448C39.1279 104.296 39.1519 104.108 39.1519 103.884ZM43.1779 102.018C43.2299 101.958 43.2899 101.904 43.3579 101.856C43.4299 101.808 43.5299 101.784 43.6579 101.784H44.7379L38.2939 110.238C38.2419 110.302 38.1799 110.356 38.1079 110.4C38.0359 110.44 37.9479 110.46 37.8439 110.46H36.7399L43.1779 102.018ZM45.1939 108.42C45.1939 108.748 45.1379 109.044 45.0259 109.308C44.9179 109.572 44.7719 109.798 44.5879 109.986C44.4039 110.17 44.1899 110.314 43.9459 110.418C43.7019 110.518 43.4479 110.568 43.1839 110.568C42.8959 110.568 42.6299 110.518 42.3859 110.418C42.1419 110.314 41.9299 110.17 41.7499 109.986C41.5739 109.798 41.4359 109.572 41.3359 109.308C41.2359 109.044 41.1859 108.748 41.1859 108.42C41.1859 108.084 41.2359 107.78 41.3359 107.508C41.4359 107.236 41.5739 107.006 41.7499 106.818C41.9299 106.63 42.1419 106.486 42.3859 106.386C42.6299 106.282 42.8959 106.23 43.1839 106.23C43.4719 106.23 43.7379 106.282 43.9819 106.386C44.2299 106.486 44.4419 106.63 44.6179 106.818C44.7979 107.006 44.9379 107.236 45.0379 107.508C45.1419 107.78 45.1939 108.084 45.1939 108.42ZM44.0479 108.42C44.0479 108.188 44.0259 107.994 43.9819 107.838C43.9379 107.682 43.8759 107.556 43.7959 107.46C43.7199 107.364 43.6279 107.296 43.5199 107.256C43.4159 107.212 43.3039 107.19 43.1839 107.19C43.0639 107.19 42.9519 107.212 42.8479 107.256C42.7439 107.296 42.6539 107.364 42.5779 107.46C42.5019 107.556 42.4419 107.682 42.3979 107.838C42.3579 107.994 42.3379 108.188 42.3379 108.42C42.3379 108.644 42.3579 108.832 42.3979 108.984C42.4419 109.136 42.5019 109.258 42.5779 109.35C42.6539 109.442 42.7439 109.508 42.8479 109.548C42.9519 109.588 43.0639 109.608 43.1839 109.608C43.3039 109.608 43.4159 109.588 43.5199 109.548C43.6279 109.508 43.7199 109.442 43.7959 109.35C43.8759 109.258 43.9379 109.136 43.9819 108.984C44.0259 108.832 44.0479 108.644 44.0479 108.42Z" fill="white"/>
</svg>
