<svg width="67" height="55" viewBox="0 0 67 55" fill="none" xmlns="http://www.w3.org/2000/svg">
<g clip-path="url(#clip0_61_253)">
<path d="M67 38.9096C66.6306 39.5417 66.3285 39.8412 65.5226 39.6582C64.4776 39.4211 64.7336 36.9051 64.4566 36.0525L63.7306 33.8567L65.7996 44.1247C65.6108 45.0563 64.1502 44.6654 63.4661 44.7402C63.5711 45.6385 63.3864 46.541 63.336 47.3977C63.2353 49.2068 63.3696 51.4858 63.0674 53.22C62.845 54.4884 60.7633 54.7712 60.4947 52.933C60.1548 50.6291 60.3982 47.8177 60.1967 45.4514C60.1841 45.2933 60.1464 44.7568 59.9365 44.7361C60.0414 45.547 59.8484 46.3663 59.8064 47.1357C59.7057 49.0196 59.8358 51.3735 59.5126 53.195C59.2608 54.609 57.1749 54.6756 56.9399 52.9538L56.5328 44.7402C55.9872 44.682 54.619 44.9066 54.2497 44.4741L54.0902 44.0041L56.2726 34.9546V32.1682C55.1982 32.4177 54.2119 32.8835 53.0661 32.8211C52.5457 32.792 50.4388 32.1807 50.1241 31.848C49.973 31.6858 49.8303 31.378 49.7673 31.1618C49.2259 29.3153 49.5365 26.741 48.6887 24.8446L48.034 23.2268C48.0214 23.5844 48.0214 23.9338 48.0676 24.2914C48.6635 28.8952 50.5228 33.9398 51.0012 38.4854C51.0474 38.9304 51.1355 39.4877 50.9131 39.8827C50.3675 40.8476 47.8577 39.9285 47.6563 40.544L46.9764 53.3448C46.3846 55.4117 43.8119 55.4366 43.09 53.4529L42.4059 40.3319C42.1667 40.3818 42.1625 40.5856 42.1415 40.781C41.7302 44.42 41.9232 48.3792 41.6211 52.0555C41.5161 53.3323 41.214 54.9209 39.5813 54.9584C37.059 55.0207 37.5416 51.6979 37.4409 50.1051C37.315 48.0381 37.1597 45.9546 37.0464 43.8877C36.9834 42.7066 37.0212 41.5088 36.9163 40.3277H34.1043C33.8357 40.3277 33.2523 39.4585 33.3909 39.1175C34.1127 34.3391 35.867 29.2945 36.4882 24.5534C36.5511 24.0669 36.5134 23.5803 36.5218 23.0979L35.9972 24.1958C35.0906 26.5913 34.9941 29.1614 34.4946 31.6483C34.0288 32.6756 32.5221 32.8585 31.7414 32.0434C30.9608 31.2241 31.3595 28.7455 31.2966 27.5602C31.2 25.7928 30.8139 23.9047 30.2809 22.2162L29.4625 20.5028L30.7762 31.324C30.9692 32.609 29.7143 34.1894 29.5884 35.2041C29.5087 35.8362 29.6304 36.6223 29.5968 37.2877C29.3912 41.33 29.1603 45.4139 28.9337 49.4563C28.8623 50.7081 29.005 52.3342 28.749 53.5485C28.3671 55.3659 25.5636 55.4948 25.0096 53.744C24.8543 53.2491 24.7913 52.2344 24.7493 51.6688C24.5059 48.2669 24.6486 44.6861 24.359 41.3009C24.3464 41.1429 24.3087 40.6064 24.0988 40.5856C24.0694 41.3841 24.1366 42.1909 24.0988 42.9894C24.0107 45.181 23.8218 47.4018 23.7043 49.5935C23.6372 50.837 23.7882 52.3633 23.5406 53.5776C23.1755 55.3992 20.0572 55.5988 19.6794 53.3156C19.4486 51.9432 19.4612 50.0011 19.3815 48.558C19.1422 44.3534 19.243 39.8911 18.861 35.7281C18.7687 34.7217 18.2609 34.127 17.9839 33.2287C17.0773 30.2926 18.605 24.3705 18.861 21.085C18.8736 20.9436 18.966 20.482 18.7351 20.5069C17.7866 22.682 17.1781 25.0567 17.0354 27.4396C16.9472 28.9035 17.6355 31.9894 15.8602 32.4967C15.5454 32.5882 14.555 32.7837 14.2234 32.817C13.0063 32.9376 11.8815 32.5425 10.7567 32.1682C10.7316 32.4177 10.8742 32.6381 10.8868 32.8793C10.9708 34.7466 11.3065 37.4831 11.1512 39.234C11.0841 39.9826 10.6896 40.5648 10.6182 41.1678C10.1776 44.8858 10.4671 48.9614 10.0978 52.7001C9.90475 54.6589 7.86504 54.6797 7.54187 53.2948C7.32363 50.3171 7.11798 47.327 7.0928 44.3451L6.83259 45.4472C6.72347 47.772 6.75285 50.13 6.57238 52.4465C6.50523 53.3198 6.2744 54.2846 5.19159 54.2597C3.85276 54.2264 3.89053 52.6502 3.81499 51.6688C3.57576 48.6204 3.68069 45.5137 3.42887 42.4654C3.34493 41.4465 3.00498 40.4858 2.90845 39.6124C2.72798 37.9988 3.1099 36.2438 3.03856 34.6219L2.66503 35.7406C2.26632 36.693 2.65663 39.4877 1.39755 39.6706C-0.256045 39.9119 -0.0294103 38.0113 0.0293469 36.8843C0.214012 33.3867 1.58641 29.1697 4.97754 27.5311C9.04858 25.564 10.0978 29.5482 13.6358 30.3425C12.9349 24.724 13.6694 17.6706 18.3574 13.8362C24.2499 9.01204 30.965 12.547 33.5126 18.8102C34.503 17.575 35.2501 16.2858 36.4504 15.1795C39.275 12.5761 42.2926 11.4824 45.8893 13.4744C51.6392 16.6642 53.2676 24.2873 53.1249 30.3425C55.6011 30.1304 57.6576 26.6536 60.1212 26.7035C63.0003 26.7618 65.9172 30.6918 66.425 33.2952L66.9832 36.302V38.893L67 38.9096Z" fill="#F9F9F9"/>
<path d="M41.7346 0.85255C49.2933 0.128921 50.2502 11.3743 43.1238 12.206C35.3007 13.1168 34.2388 1.57202 41.7346 0.85255Z" fill="#F9F9F9"/>
<path d="M23.1631 0.0748283C31.2968 -1.01062 32.0145 10.3554 25.077 11.1705C17.1867 12.0937 16.4522 0.968968 23.1631 0.0748283Z" fill="#F9F9F9"/>
<path d="M4.41104 25.3894C0.667366 21.6714 6.90402 16.4272 9.98878 20.5777C12.6916 24.2166 7.56714 28.5209 4.41104 25.3894Z" fill="#F9F9F9"/>
<path d="M62.5093 25.5225C58.7656 28.8162 53.767 22.9815 57.7835 19.8707C61.5062 16.9886 65.9843 22.4699 62.5093 25.5225Z" fill="#F9F9F9"/>
</g>
<defs>
<clipPath id="clip0_61_253">
<rect width="67" height="55" fill="white"/>
</clipPath>
</defs>
</svg>
