<svg width="79" height="70" viewBox="0 0 79 70" fill="none" xmlns="http://www.w3.org/2000/svg">
<g clip-path="url(#clip0_61_218)">
<path d="M79 35.1498V35.3041C76.6918 38.4133 72.9115 37.1288 70.3035 35.1226L40.152 8.1883L6.8745 36.112C4.47093 37.6916 1.74475 38.0547 0 35.3813L40.1793 0L79 35.1498Z" fill="#F9F9F9"/>
<path d="M39.7522 21.197L61.3571 40.3197L61.4207 63.8588H51.8064V52.9607C51.8064 51.2087 50.9522 49.6382 50.4479 48.8575C48.9258 46.5199 46.4677 45.19 43.1463 44.9177C41.9786 44.8223 40.3474 44.7633 38.6708 44.7633C37.4849 44.7633 35.7765 44.7906 34.3771 44.9222C29.2064 45.4079 26.8892 48.8756 26.4484 51.9576L26.3939 52.3525V52.7519L26.2894 64.0131H16.7705L16.7978 40.3015L39.7522 21.197ZM39.8749 13.3037L10.8093 37.4919L10.7729 68.5339C10.7411 69.1694 11.4999 69.9955 12.0906 69.9955H32.2325L32.3824 52.7973C32.5778 51.422 33.7001 50.9908 34.9359 50.8773C35.9037 50.7865 37.2804 50.7457 38.6708 50.7457C40.1384 50.7457 41.6196 50.7911 42.651 50.8773C43.6733 50.9636 44.8274 51.1951 45.4272 52.1165C45.5044 52.239 45.8179 52.8926 45.8179 52.9562V69.8411H65.9598C66.6277 69.8411 67.4547 68.4204 67.4274 67.7578L67.3456 37.6145L39.8749 13.2992V13.3037Z" fill="#F9F9F9"/>
<path d="M69.7403 8.01129V23.8931C69.3405 23.7933 68.9179 23.3848 68.5862 23.117C66.2826 21.2832 64.1108 19.2452 61.8662 17.3389V8.01129H69.7403Z" fill="#F9F9F9"/>
</g>
<defs>
<clipPath id="clip0_61_218">
<rect width="79" height="70" fill="white"/>
</clipPath>
</defs>
</svg>
