<svg width="24" height="58" viewBox="0 0 24 58" fill="none" xmlns="http://www.w3.org/2000/svg">
<g clip-path="url(#clip0_22_259)">
<path d="M12.0161 0V2.27534C16.6091 2.27534 20.3873 6.01904 20.4363 10.6213C20.4592 12.7996 19.6001 14.8777 18.0165 16.4689C16.4238 18.0708 14.3226 18.9582 12.1004 18.9673H12.0605C7.33283 18.9673 3.60365 15.3024 3.57149 10.6228C3.55618 8.43394 4.41688 6.35731 5.99584 4.77519C7.59472 3.17183 9.72043 2.28444 11.9794 2.27383H12.0177L12.0161 0ZM12.0161 0C12.0008 0 11.984 0 11.9687 0C6.05557 0.0273041 1.23137 4.82524 1.27272 10.6395C1.31408 16.5599 6.08467 21.2441 12.059 21.2441C12.0759 21.2441 12.0927 21.2441 12.108 21.2441C17.9644 21.2183 22.7932 16.3794 22.732 10.5985C22.6707 4.7585 17.8526 0 12.0161 0Z" fill="#F9F9F9"/>
<path d="M22.9418 52.7379C22.6125 52.5165 22.2357 52.3238 21.8192 52.163C19.6644 51.3348 17.4728 51.1118 15.0377 50.9253C14.9045 50.9146 14.7866 50.9359 14.6809 50.9738L17.8572 25.8358C17.9522 25.0849 17.6642 24.3371 17.0899 23.8396C16.6657 23.4725 16.1282 23.2783 15.5784 23.2783C15.3823 23.2783 15.1848 23.3026 14.9903 23.3542C13.9734 23.6211 12.9978 23.7516 12.0069 23.7516C11.016 23.7516 10.042 23.6227 9.01898 23.3572C8.82754 23.3071 8.63151 23.2829 8.43701 23.2829C7.88567 23.2829 7.34659 23.4801 6.92236 23.8472C6.34959 24.3447 6.0632 25.0925 6.15815 25.8419L6.69111 30.0224L9.36203 50.9799C9.22879 50.9374 9.09402 50.9177 8.9715 50.9268C6.93155 51.0724 4.76296 51.2741 2.67094 51.9931C1.99096 52.2267 1.38756 52.5286 0.877569 52.8911C0.329295 53.2825 0.018402 53.8013 0.00461854 54.3549C-0.00916488 54.9162 0.281818 55.4623 0.823966 55.89C1.17774 56.1692 1.60656 56.4134 2.0997 56.6182C3.75524 57.3038 5.52105 57.5495 7.04488 57.727C7.70343 57.8029 8.36962 57.862 9.01438 57.9197C9.3069 57.9454 9.59788 57.9712 9.8904 57.9985L14.0974 58.0016L14.1403 57.997C14.2184 57.9879 14.2965 57.9773 14.3746 57.9652C14.5247 57.9439 14.6656 57.9242 14.7988 57.9166C16.6489 57.8029 18.6245 57.6208 20.5297 57.0747C21.4608 56.8078 22.2342 56.4877 22.8958 56.0948C23.5926 55.6807 23.9862 55.1043 24.0046 54.4733C24.023 53.8271 23.6478 53.2112 22.9464 52.741L22.9418 52.7379ZM9.67905 53.5009C9.82454 54.6447 10.8078 55.4911 11.9564 55.4911C12.0084 55.4911 12.0605 55.4896 12.1126 55.4866L12.1723 55.482L12.2366 55.4775C13.3332 55.4046 14.2245 54.5704 14.3608 53.4903L14.4542 52.747C14.5568 52.8183 14.6794 52.8775 14.8279 52.9018C15.1679 52.9579 15.5018 52.9822 15.8249 53.0049C16.0286 53.0201 16.2231 53.0337 16.413 53.055C18.0456 53.237 19.6353 53.4509 21.1239 54.0607C21.3459 54.1517 21.5711 54.273 21.784 54.4156C21.6002 54.5461 21.4087 54.6629 21.2357 54.7084C20.9799 54.7766 20.7242 54.8464 20.4684 54.9147C19.4163 55.2014 18.3289 55.4972 17.2615 55.6443C13.6211 56.1449 9.89346 56.1221 6.18112 55.5776C4.93755 55.3955 3.6266 55.1468 2.45654 54.5719C2.41978 54.5537 2.38149 54.5355 2.34321 54.5173C2.27735 54.4869 2.1824 54.4414 2.11654 54.402C2.16249 54.3732 2.24213 54.3337 2.38302 54.2852L2.6541 54.1896C3.50561 53.8893 4.38468 53.5798 5.24998 53.4145C6.12139 53.2476 7.03723 53.1505 7.92243 53.0565C8.32521 53.014 8.72799 52.9715 9.12924 52.923C9.23951 52.9094 9.4141 52.8866 9.59175 52.8138L9.67905 53.5009ZM12.0039 26.0269C13.1862 26.0269 14.37 25.8707 15.5768 25.5537C14.4068 34.8189 13.2444 44.0128 12.0835 53.2082C12.0421 53.2112 12.0008 53.2142 11.9594 53.2158C10.7878 44.0279 9.61779 34.8401 8.43395 25.5582C9.6331 25.8692 10.8185 26.0269 12.0039 26.0269Z" fill="#F9F9F9"/>
</g>
<defs>
<clipPath id="clip0_22_259">
<rect width="24" height="58" fill="white"/>
</clipPath>
</defs>
</svg>
