<?xml version="1.0" encoding="UTF-8"?>
<svg id="Calque_1" data-name="Calque 1" xmlns="http://www.w3.org/2000/svg" viewBox="0 0 1163.7 558.28">
  <defs>
    <style>
      .cls-1 {
        fill: #9f1313;
      }

      .cls-2 {
        fill: #f9f9f9;
      }
    </style>
  </defs>
  <g>
    <path class="cls-1" d="M0,556.63v-10l41.47-59.22H1.75v-9.51h52.16v9.39l-41.92,59.78h42.9v9.56H0ZM0,556.63"/>
    <path class="cls-1" d="M107.37,556.63v-78.72h48.11v9.51h-37.58v22.98h32.13v9.56h-32.13v27.12h37.58v9.56h-48.11ZM107.37,556.63"/>
    <path class="cls-1" d="M237.61,487.41v69.22h-10.46v-69.22h-26.11v-9.51h62.67v9.51h-26.1ZM237.61,487.41"/>
    <path class="cls-1" d="M305.06,556.63l25.42-78.72h13.49l25.19,78.72h-10.99l-21.21-68.48-21.28,68.48h-10.63ZM305.06,556.63"/>
  </g>
  <g>
    <path class="cls-2" d="M496.6,487.41v22.98h31.57v9.56h-31.57v36.68h-10.53v-78.72h47.67v9.51h-37.14ZM496.6,487.41"/>
    <path class="cls-2" d="M612.84,556.63h-32.18v-9.1h10.85v-60.68h-10.85v-8.94h32.18v8.94h-10.85v60.68h10.85v9.1ZM612.84,556.63"/>
    <path class="cls-2" d="M710.77,556.63l-35.55-67.56v67.56h-10.12v-78.72h15.42l32.59,61.84v-61.84h10.12v78.72h-12.46ZM710.77,556.63"/>
    <path class="cls-2" d="M772.6,556.63l26.9-78.72h13.65l26.9,78.72h-11.09l-6.81-20.48h-32.08l-6.71,20.48h-10.75M793.25,526.59h25.59l-12.8-38.33-12.79,38.33ZM793.25,526.59"/>
    <path class="cls-2" d="M935.08,556.63l-35.55-67.56v67.56h-10.12v-78.72h15.4l32.6,61.84v-61.84h10.12v78.72h-12.46ZM935.08,556.63"/>
    <path class="cls-2" d="M1064.69,542.86c-2.5,4.02-5.06,7.07-7.65,9.13-2.61,2.06-5.62,3.63-9.08,4.7-3.44,1.06-7.5,1.58-12.16,1.58-11.79,0-20.49-3.41-26.08-10.21-5.59-6.81-8.38-17.07-8.38-30.8s2.78-23.96,8.33-30.77c5.55-6.83,14.1-10.24,25.67-10.24,4.6,0,8.69.56,12.29,1.71,3.61,1.13,6.64,2.69,9.13,4.68,2.49,1.99,4.75,4.79,6.8,8.4l-8.64,5.67c-1.67-2.8-3.36-4.92-5.06-6.39-1.72-1.47-3.76-2.63-6.15-3.48-2.39-.85-5.18-1.28-8.36-1.28-7.88,0-13.68,2.63-17.37,7.89-3.7,5.25-5.54,13.18-5.54,23.8s1.82,18.36,5.45,23.68c3.65,5.33,9.51,7.99,17.58,7.99,4.48,0,8.36-.87,11.65-2.64,3.3-1.75,6.27-4.81,8.87-9.13l8.7,5.69ZM1064.69,542.86"/>
    <path class="cls-2" d="M1115.59,556.63v-78.72h48.11v9.51h-37.6v22.98h32.15v9.56h-32.15v27.12h37.6v9.56h-48.11ZM1115.59,556.63"/>
  </g>
  <g>
    <path class="cls-2" d="M693.6,186.59v29.93h-228.84v141.89h-32.38V54.55h202.16l-15.57,30.34h-154.21v101.7h228.84ZM478.72,0v31.16h171l-10.66,23.39-65.6,127.94h37.31l49.63-97.6,15.59-30.34,12.71-26.25V0h-209.96ZM478.72,0"/>
    <path class="cls-2" d="M680.47,54.55l-15.57,30.34h66.42v-30.34h-50.85ZM680.47,54.55"/>
    <path class="cls-2" d="M689.5,378.92h-178.79l11.06-20.51,15.18-30.34,55.36-107.44h-37.73l-70.94,137.79-13.54,25.43v26.23h219.81l-.41-31.16ZM689.5,378.92"/>
  </g>
</svg>