<svg width="44" height="32" viewBox="0 0 44 32" fill="none" xmlns="http://www.w3.org/2000/svg">
<g clip-path="url(#clip0_22_254)">
<path d="M2.07893 7.64145L3.78612 9.07169C7.33121 12.0429 10.9968 15.1124 14.6008 18.1365C15.1161 18.5696 15.639 19.0153 16.144 19.4459C17.036 20.2064 17.9563 20.9945 18.8919 21.7499C19.7378 22.4348 20.7964 22.7949 21.9576 22.7949C22.1422 22.7949 22.3344 22.7848 22.5241 22.7672C24.0237 22.6262 25.0798 21.828 25.9539 21.0902C31.1908 16.6711 36.3123 12.3627 41.9209 7.64145V28.4503C41.9106 28.4906 41.8978 28.5334 41.8876 28.5813C41.6569 29.6791 40.9084 30.2835 39.7779 30.2835C35.1793 30.2835 30.5781 30.286 25.9795 30.286C17.6281 30.286 10.7123 30.2809 4.21932 30.2684C3.87583 30.2684 3.4939 30.1853 3.19911 30.0468C2.67876 29.8025 2.0815 29.3669 2.07893 28.1482C2.07381 22.5431 2.07637 16.8448 2.07637 11.3354V7.6339M42.6361 5.30725C42.3849 5.30725 42.1131 5.44574 41.7876 5.71769C36.1662 10.449 30.5422 15.1804 24.926 19.9168C24.1749 20.5513 23.4136 21.128 22.3729 21.2262C22.2319 21.2387 22.0935 21.2463 21.9551 21.2463C21.1912 21.2463 20.4863 21.0373 19.8916 20.5538C18.4458 19.383 17.0488 18.1517 15.6236 16.9556C11.1557 13.2088 6.68269 9.46198 2.21223 5.71517C2.10713 5.62704 1.99947 5.53387 1.88156 5.46085C1.72263 5.36517 1.55345 5.31984 1.39196 5.31984C0.969009 5.31984 0.584509 5.61948 0.512735 6.08784C0.497355 6.19611 0.499919 6.3069 0.499919 6.4177C0.499919 13.662 0.497355 20.9089 0.499919 28.1532C0.499919 29.6414 1.13563 30.8022 2.51727 31.4493C3.02993 31.6885 3.64513 31.8195 4.21163 31.822C11.4659 31.8346 18.7201 31.8396 25.9769 31.8396C30.5756 31.8396 35.1768 31.8396 39.7779 31.8371C41.6748 31.8371 43.0539 30.7115 43.4333 28.896C43.4461 28.8306 43.4768 28.7676 43.4973 28.7047V5.93676C43.2128 5.51625 42.9411 5.30977 42.6335 5.30977L42.6361 5.30725Z" fill="#F9F9F9"/>
<path d="M4.26562 1.70901C6.7982 1.71153 9.50509 1.71405 13.0374 1.71405C14.5369 1.71405 16.0365 1.71405 17.5335 1.71405C19.033 1.71405 20.53 1.71405 22.0296 1.71405C23.5291 1.71405 25.062 1.71405 26.5769 1.71405C28.0919 1.71405 29.6094 1.71405 31.1243 1.71405C34.5874 1.71405 37.2481 1.71405 39.755 1.71153C40.2549 1.71153 40.6548 1.81477 40.9983 2.04139C39.9652 2.90255 38.9348 3.76371 37.9017 4.62488C35.5358 6.59648 33.0878 8.63859 30.6885 10.6555C28.7353 12.2973 26.764 13.9768 24.8544 15.6034C24.0443 16.2934 23.2343 16.9833 22.4217 17.6732C22.1962 17.8646 22.0629 17.9376 22.0039 17.9653C21.9424 17.9376 21.8014 17.8621 21.5579 17.6581C14.8727 12.0228 8.1619 6.37993 2.99934 2.03887C3.34795 1.81225 3.75039 1.70901 4.2605 1.70901H4.26562ZM4.26306 0.157914C3.23773 0.157914 2.34312 0.460076 1.60232 1.16512C0.897398 1.83239 0.920468 2.33096 1.65615 2.94788C7.94914 8.24075 14.2447 13.5336 20.5351 18.829C21.0811 19.2898 21.5451 19.5215 22.0091 19.5215C22.473 19.5215 22.9242 19.2948 23.4573 18.8416C26.2104 16.5024 28.9506 14.153 31.7164 11.8289C35.2795 8.835 38.8604 5.86122 42.4312 2.87737C43.0464 2.3637 43.0797 1.87268 42.5286 1.29606C41.7801 0.507918 40.847 0.157914 39.755 0.157914H39.7499C36.8738 0.160432 34.0004 0.160432 31.1243 0.160432C28.0919 0.160432 25.0594 0.160432 22.0296 0.160432C18.9997 0.160432 16.0339 0.160432 13.0374 0.160432C10.0408 0.160432 7.19039 0.160432 4.26819 0.155396H4.26306V0.157914Z" fill="#F9F9F9"/>
</g>
<defs>
<clipPath id="clip0_22_254">
<rect width="43" height="31.6842" fill="white" transform="translate(0.5 0.157898)"/>
</clipPath>
</defs>
</svg>
