<svg width="40" height="40" viewBox="0 0 40 40" fill="none" xmlns="http://www.w3.org/2000/svg">
<path d="M32.7203 1.7318C33.0388 1.7318 33.4093 1.93615 33.8236 2.34024C35.0341 3.51902 36.2182 4.71166 37.318 5.82463C37.6965 6.20793 37.9585 6.69861 38.1212 7.32668C38.1639 7.49408 38.202 7.68343 38.2412 7.88432C38.2504 7.93165 38.2597 7.97899 38.2689 8.02632V9.45102C38.2412 9.55031 38.2181 9.66692 38.2066 9.79507C38.0658 11.3606 37.5522 12.8661 37.1206 14.0022C35.1311 19.2415 31.8871 24.0074 27.204 28.5736C24.1851 31.5165 20.6537 33.9999 16.7069 35.9557C13.8461 37.3723 11.5553 38.0789 9.27608 38.2451C9.04758 38.2613 8.82832 38.2705 8.62405 38.2705C7.45155 38.2705 6.60911 37.9969 5.97323 37.4081C4.66225 36.1958 3.36973 34.8831 2.02413 33.3961C1.70331 33.0416 1.64907 32.693 1.84756 32.2658C1.98258 31.9737 2.22262 31.6481 2.54114 31.3214C3.80596 30.0237 5.1181 28.7202 6.38638 27.4594C6.72567 27.1223 7.06611 26.7852 7.40424 26.4469C7.58773 26.2645 7.73429 26.1329 7.86701 26.0348C8.25822 25.7415 8.52134 25.7046 8.70599 25.7046C8.75792 25.7046 8.81101 25.708 8.8664 25.7149C9.21146 25.7588 9.54267 25.9609 9.97543 26.3903C10.8975 27.3059 11.83 28.2457 12.7324 29.1543L13.0475 29.4718C13.5968 30.0248 14.2107 30.3054 14.872 30.3054C15.2655 30.3054 15.6498 30.2049 16.0156 30.0087C16.2603 29.8759 16.5073 29.7489 16.7692 29.6127C17.3601 29.3067 17.9717 28.9904 18.5741 28.6117C20.8199 27.202 22.9225 25.4205 25.0033 23.1669C26.8405 21.1765 28.7123 18.9471 29.9633 16.1427C30.1353 15.7582 30.3938 15.1764 30.2818 14.464C30.1607 13.6916 29.6586 13.1906 29.3898 12.9215C28.9882 12.5198 28.5854 12.1203 28.1838 11.7197C27.616 11.1551 27.0298 10.5721 26.4574 9.99596C25.9911 9.52722 25.7811 9.19471 25.7338 8.84951C25.6911 8.53663 25.7084 8.14062 26.4527 7.39133C26.7516 7.09115 27.0494 6.78982 27.3483 6.48964C28.6766 5.15153 30.0499 3.7684 31.4174 2.43491C31.6921 2.16706 31.991 1.95694 32.2587 1.84264C32.4295 1.7699 32.5807 1.73411 32.7215 1.73411M32.7203 0C32.3568 0 31.9771 0.0773538 31.579 0.24707C31.077 0.460659 30.6015 0.808174 30.208 1.19148C28.5277 2.82976 26.8797 4.50153 25.2248 6.16637C24.4263 6.96992 23.8539 7.87277 24.0177 9.0781C24.1366 9.95209 24.6328 10.6136 25.2295 11.214C26.2046 12.1942 27.1879 13.1652 28.1665 14.143C28.6673 14.643 28.6754 14.7769 28.3823 15.435C27.2686 17.9311 25.5618 20.0069 23.7315 21.9904C21.9185 23.9554 19.9244 25.7184 17.6544 27.1431C16.865 27.6384 16.0156 28.039 15.194 28.4824C15.0786 28.5447 14.9724 28.5724 14.8732 28.5724C14.6481 28.5724 14.4589 28.4339 14.2765 28.2503C13.2517 27.2181 12.2281 26.1848 11.1964 25.1608C10.6055 24.5743 9.95004 24.1067 9.08682 23.997C8.95757 23.9808 8.83178 23.9728 8.7083 23.9728C8.01357 23.9728 7.39847 24.2244 6.83184 24.6482C6.60218 24.8202 6.38869 25.0176 6.18558 25.2197C4.55262 26.8452 2.91158 28.4627 1.30286 30.1126C0.897789 30.5282 0.522728 31.0143 0.279227 31.535C-0.222778 32.6144 -0.0300546 33.7043 0.741995 34.5575C2.03567 35.9857 3.38473 37.3711 4.79958 38.6792C5.88437 39.6825 7.21613 40.0012 8.62521 40.0012C8.88256 40.0012 9.14221 39.9908 9.40303 39.9711C12.2812 39.761 14.9205 38.7727 17.4755 37.5074C21.5169 35.5054 25.1845 32.9608 28.4134 29.8135C32.8842 25.4552 36.5055 20.5022 38.7397 14.6176C39.3121 13.1097 39.7853 11.5707 39.9319 9.95093C39.9376 9.88397 39.9769 9.81932 40.0011 9.75351V7.85199C39.9342 7.53218 39.8799 7.20891 39.798 6.89257C39.5741 6.02782 39.1806 5.2462 38.5493 4.60775C37.3849 3.43012 36.217 2.25481 35.0307 1.10027C34.3452 0.431796 33.5777 0.00115453 32.7191 0.00115453L32.7203 0Z" fill="#F9F9F9"/>
<path d="M13.9777 11.0951H8.41522V17.004H5.5336V11.0951H0V8.4708H5.5336V2.5896H8.41522V8.46964H13.9777V11.0939V11.0951Z" fill="#F9F9F9"/>
</svg>
