<svg width="71" height="59" viewBox="0 0 71 59" fill="none" xmlns="http://www.w3.org/2000/svg">
<g clip-path="url(#clip0_61_239)">
<path d="M70.9819 40.8364C70.9457 41.4703 71.0318 42.1448 70.9819 42.7741C69.7392 57.8682 50.8349 64.5732 40.3396 53.5039C39.4188 52.535 36.067 48.6687 38.0718 47.6365C39.8452 46.7219 40.4031 48.7955 41.1968 49.8775C49.2248 60.7883 65.8613 56.4376 67.925 43.331C66.4418 43.2133 62.6002 45.495 62.133 43.0865C61.9425 42.1041 62.5185 41.6106 63.3486 41.3208C64.4416 40.936 68.1971 39.931 69.2448 39.8676C70.1746 39.8133 70.4422 40.1664 70.9729 40.8364H70.9819Z" fill="#F9F9F9"/>
<path d="M65.022 24.2257L61.7428 22.4464L57.6743 21.1109L54.8986 20.6265H62.1056V8.85996H2.91624V20.6265H51.574L47.0338 21.5591C36.4024 24.8414 30.0889 36.4721 33.4135 47.2018H5.20217C2.86181 47.2018 0.0814994 44.2093 0.00439453 41.8732V5.469C0.226638 2.61679 2.35836 0.380295 5.19764 0H59.9603C61.9741 0.013582 65.022 2.81599 65.022 4.78085V24.2257Z" fill="#F9F9F9"/>
<path d="M38.5435 39.3107C40.0221 39.365 43.7594 37.1557 44.3082 39.442C44.5758 40.5648 43.9136 41.013 42.9838 41.3208C41.7093 41.7419 38.5843 42.6066 37.3279 42.7424C34.7064 43.0231 35.5182 39.4601 35.813 37.9027C38.6296 23.0486 58.051 18.4443 67.2945 30.4734C68.0474 31.4513 69.8662 33.7285 68.6144 34.806C66.9725 36.2231 66.1697 33.9368 65.4667 32.9861C57.2482 21.8262 40.8022 25.9144 38.5435 39.3152V39.3107Z" fill="#F9F9F9"/>
</g>
<defs>
<clipPath id="clip0_61_239">
<rect width="71" height="59" fill="white"/>
</clipPath>
</defs>
</svg>
