<svg width="67" height="75" viewBox="0 0 67 75" fill="none" xmlns="http://www.w3.org/2000/svg">
<g clip-path="url(#clip0_61_231)">
<path d="M51.9183 75H15.0815L15.1052 49.0234C15.1289 48.9037 15.2285 48.8606 15.3138 48.7936C15.5223 48.6308 18.8733 47.0318 19.0818 47.0174C19.4183 46.9983 20.589 48.1664 20.589 48.267V62.9165L20.8071 63.1367H46.188L46.406 62.9165V48.267C46.406 48.1664 47.5815 46.9983 47.9132 47.0174C48.1218 47.0318 51.4585 48.6164 51.6813 48.7936C51.7666 48.8606 51.8661 48.8989 51.8898 49.0234L51.9135 75H51.9183Z" fill="#F9F9F9"/>
<path d="M10.7306 75H0V62.9165C0.706211 56.7072 5.27051 53.0304 10.7306 50.9766V75Z" fill="#F9F9F9"/>
<path d="M67.0001 75H56.2695V50.9766C61.7581 53.0256 66.2655 56.7024 67.0001 62.9165V75Z" fill="#F9F9F9"/>
<path d="M36.2583 0V9.81425H40.6093V3.8108C45.9035 5.93642 49.8422 10.6185 51.411 16.1145C51.6196 16.847 51.6338 17.6944 51.994 18.3119H54.9658V23.5877H12.0386V18.3119H15.0103C15.3658 17.6944 15.38 16.847 15.5933 16.1145C17.1716 10.6042 21.1008 5.95078 26.395 3.8108V9.81903H30.7461V0H36.2583Z" fill="#F9F9F9"/>
<path d="M53.0797 27.9778V31.712C53.0797 31.8077 52.6674 32.6503 52.5631 32.7987C51.6957 34.0387 49.8852 33.3732 48.5913 33.5504C48.3353 38.5676 46.2641 43.1205 42.1643 46.0264C33.1636 52.3985 20.8215 47.2951 18.774 36.4803C18.5891 35.5132 18.5797 34.5174 18.4138 33.5504C17.1198 33.378 15.314 34.0387 14.4419 32.7987C14.3376 32.6503 13.9253 31.8077 13.9253 31.712V27.9778H53.0797Z" fill="#F9F9F9"/>
<path d="M42.0549 51.2687V58.5216L41.8369 58.7419H25.158L24.9399 58.5216V51.2687C30.3716 53.8347 36.628 53.8491 42.0549 51.2687Z" fill="#F9F9F9"/>
</g>
<defs>
<clipPath id="clip0_61_231">
<rect width="67" height="75" fill="white"/>
</clipPath>
</defs>
</svg>
