<svg width="63" height="73" viewBox="0 0 63 73" fill="none" xmlns="http://www.w3.org/2000/svg">
<g clip-path="url(#clip0_61_260)">
<path d="M17.0566 0.0535765C31.5497 -0.998639 41.6418 14.1623 34.8505 26.9977C28.5415 38.92 11.481 40.1852 3.54422 29.2208C-4.92006 17.5359 2.64587 1.0976 17.0566 0.0535765ZM14.5016 14.8378C15.4742 12.5491 17.7324 11.5542 20.1678 11.7057C21.1404 11.7671 23.6418 12.6228 24.3093 12.3936C24.5689 12.3035 25.5003 10.2032 25.5168 9.89609C25.5621 9.01993 23.8354 8.6146 23.172 8.43445C17.6088 6.93597 12.264 9.16732 10.492 14.7723L7.79285 15.0139C7.50439 15.3005 7.45906 17.2125 7.97417 17.5441H10.0552V18.6864C9.10329 18.8297 7.75576 18.1951 7.61565 19.4684C7.33131 22.0928 8.32856 21.2002 10.3478 21.4623C11.8643 27.3784 17.4769 29.8554 23.2214 28.2751C23.8519 28.1031 25.3972 27.6855 25.4797 26.9731C25.525 26.5637 24.6349 24.492 24.2558 24.32C23.6582 24.0498 21.3176 24.8809 20.4522 24.9587C17.65 25.2003 15.2269 24.1767 14.3574 21.3968H19.0222C19.7764 21.3968 19.661 18.6864 19.1665 18.6864H13.9288V17.5441H19.0222C19.0882 17.5441 19.253 17.4049 19.3437 17.364C19.5827 17.106 19.6198 15.3946 19.4549 15.1203C19.3643 15.0466 19.0923 14.8337 19.0264 14.8337H14.5058L14.5016 14.8378Z" fill="#F9F9F9"/>
<path d="M45.6347 22.6083C45.2514 24.6595 45.2803 26.9605 46.2116 28.852C46.6814 29.8059 47.4025 30.4815 48.9932 31.9227C49.3641 32.2584 49.9245 32.7661 50.0852 32.938C51.7294 34.805 53.0605 37.1223 53.9341 39.6321L54.7294 41.9085L57.1154 42.3261C57.6264 42.4162 58.1457 42.4571 58.7514 42.4571C58.7803 42.4571 58.8091 42.4571 58.838 42.4571C58.8956 43.8819 58.8915 45.9372 58.8297 47.2965C58.636 47.2965 58.4217 47.2883 58.1869 47.2678L54.8036 46.9894L53.8805 50.2361C53.1924 52.6599 51.8283 55.0591 49.941 57.1758C49.4465 57.7285 48.886 58.2608 48.2885 58.8217C46.1415 60.8483 43.4712 63.3704 43.1003 68.0419C43.0756 68.3408 43.0674 68.6315 43.0715 68.9099H38.4231V64.701L33.9561 65.0736C32.7734 65.1718 31.7185 65.221 30.7377 65.221C29.4437 65.221 28.2858 65.1391 27.1979 64.9671L22.4341 64.2179V68.9058H17.7157C17.7116 68.8607 17.7033 68.8157 17.6951 68.7707C16.9533 63.9149 14.7528 61.2619 12.8119 58.92C11.9218 57.8473 11.0811 56.836 10.3393 55.575C7.56599 50.8748 6.58522 46.5554 7.30637 42.1459C10.7514 43.7386 14.5014 44.5656 18.3833 44.5656C23.6498 44.5656 28.7514 43.0467 33.1319 40.1684C37.7185 37.1551 41.18 32.8561 43.1415 27.7261C43.4836 26.8254 43.7185 26.0515 43.9245 25.3678C44.4314 23.6851 44.5344 23.3453 45.6305 22.6042M49.4011 17.0934C47.386 17.0934 44.4355 18.4813 43.4424 19.1405C40.2569 21.2449 40.5042 23.0996 39.2885 26.2767C35.8435 35.2922 27.2308 40.4755 18.3833 40.4755C13.7102 40.4755 8.96708 39.0302 4.89154 35.935C4.52478 36.9708 4.07972 37.978 3.78302 39.0425C1.91626 45.7407 3.32972 51.7878 6.78302 57.6467C9.42038 62.1176 12.7501 63.6775 13.6237 69.3848C13.8338 70.7727 13.3847 72.3941 14.9341 73H25.4094C25.7102 72.8772 26.5591 72.2221 26.5591 71.9314V69.0081C27.9396 69.2251 29.3407 69.3111 30.7418 69.3111C31.9327 69.3111 33.1237 69.2497 34.3064 69.1514V71.9314C34.3064 72.2876 35.1841 72.7912 35.4561 73H45.9314C47.794 72.1934 47.0893 69.9785 47.2171 68.3612C47.5468 64.2138 50.6044 62.6171 53.0358 59.8862C55.2116 57.442 56.9588 54.4982 57.8531 51.3457C58.1704 51.3702 58.5042 51.3866 58.8338 51.3866C60.6924 51.3866 62.6127 50.8748 62.8599 48.6926C63.0536 46.9894 63.0536 42.5554 62.8599 40.8522C62.7734 40.0824 62.3325 39.3127 61.702 38.8665C61.0756 38.4202 60.4327 38.3424 59.7734 38.3424C59.4396 38.3424 59.0976 38.3629 58.7514 38.3629C58.4506 38.3629 58.1415 38.3465 57.8283 38.2933C56.8064 35.3577 55.2363 32.5695 53.1718 30.2317C52.5577 29.5357 50.1594 27.5582 49.9121 27.0546C49.1127 25.4292 49.6525 22.7557 50.349 21.1549C50.6951 20.3606 51.4163 19.6072 51.3915 18.7556C51.3544 17.5274 50.522 17.0934 49.4011 17.0934Z" fill="#F9F9F9"/>
<path d="M46.5288 40.9913C47.8648 40.9913 48.9478 39.9153 48.9478 38.588C48.9478 37.2607 47.8648 36.1847 46.5288 36.1847C45.1929 36.1847 44.1099 37.2607 44.1099 38.588C44.1099 39.9153 45.1929 40.9913 46.5288 40.9913Z" fill="#F9F9F9"/>
</g>
<defs>
<clipPath id="clip0_61_260">
<rect width="63" height="73" fill="white"/>
</clipPath>
</defs>
</svg>
