<svg width="6" height="13" viewBox="0 0 6 13" fill="none" xmlns="http://www.w3.org/2000/svg">
<path d="M0.786911 12.2728C0.487534 12.1605 0.312898 11.8798 0.113314 11.6271C-0.0488483 11.4166 -0.0239003 11.0937 0.113314 10.8832C0.150736 10.8271 0.188158 10.785 0.22558 10.7428C1.44803 9.36731 2.65801 8.00581 3.88047 6.63028C3.90541 6.60221 3.94284 6.57414 3.98026 6.54607C3.93036 6.48992 3.90541 6.46185 3.88047 6.43378C2.65801 5.05825 1.42309 3.66868 0.200632 2.29314C0.00104777 2.0405 -0.0737963 1.74574 0.0883659 1.49309C0.238054 1.26851 0.425164 1.05797 0.624748 0.889541C0.811859 0.721108 1.06134 0.777252 1.24845 0.945685C1.2734 0.973757 1.29834 1.00183 1.32329 1.0299C2.8077 2.70019 4.29211 4.37048 5.77652 6.04077C6.00105 6.29342 6.05094 6.58817 5.90126 6.85486C5.86383 6.92504 5.81394 6.98118 5.76404 7.03733C4.27963 8.70762 2.79523 10.3779 1.31082 12.0482C1.2235 12.1464 1.09876 12.2026 0.986495 12.2868H0.761963L0.786911 12.2728Z" fill="#E9120C"/>
</svg>
