<svg width="56" height="56" viewBox="0 0 56 56" fill="none" xmlns="http://www.w3.org/2000/svg">
<path d="M55.9947 28.5829C55.6389 43.9291 43.1005 56.2569 27.5195 55.9956C12.0455 55.7393 -0.326232 43.0432 0.00713137 27.3959C0.335519 11.8953 13.1028 -0.350302 28.6714 0.00803402C44.0061 0.361393 56.2758 13.0624 55.9947 28.5829ZM16.8444 29.8221C16.8071 29.8346 16.7723 29.8594 16.7375 29.8594C15.6105 29.8644 14.4811 29.8669 13.3541 29.8694C12.053 29.8719 11.2046 30.5985 11.1972 31.7208C11.1872 32.8605 12.048 33.6021 13.3839 33.6045C14.4736 33.6045 15.5608 33.6045 16.6504 33.6045C17.3636 33.6045 17.8495 33.9289 18.1082 34.5775C18.2177 34.8488 18.3346 35.115 18.459 35.3788C21.1583 41.1371 28.5296 45.034 35.2864 41.6472C37.6473 40.4627 39.4907 38.7332 40.7993 36.4414C41.2571 35.6376 41.1302 34.7467 40.5058 34.1371C39.9087 33.5548 39.0106 33.4005 38.3066 33.8609C37.9508 34.0948 37.6572 34.468 37.4259 34.8363C35.7815 37.4193 33.4429 38.9746 30.4029 39.1513C27.3678 39.328 24.9074 37.9817 23.0216 35.6252C22.5489 35.0354 22.2006 34.3461 21.7329 33.6045C24.4645 33.6045 27.0095 33.6045 29.557 33.6045C29.7884 33.6045 30.0272 33.6095 30.2536 33.5598C31.194 33.3582 31.8284 32.4748 31.7264 31.5367C31.6244 30.601 30.8407 29.8793 29.8556 29.8744C27.017 29.8619 24.1784 29.8694 21.3374 29.8694C21.1284 29.8694 20.9194 29.8694 20.6259 29.8694V26.1342C20.9269 26.1342 21.1359 26.1342 21.3473 26.1342C24.1088 26.1342 26.8702 26.1342 29.6317 26.1342C30.878 26.1342 31.7239 25.3827 31.7338 24.2853C31.7438 23.163 30.888 22.4041 29.6068 22.4016C27.2334 22.4016 24.8626 22.4016 22.4892 22.4016C22.2877 22.4016 22.0837 22.3841 21.8698 22.3742C22.2404 21.334 23.0142 20.1794 24.0043 19.296C25.9423 17.5665 28.1738 16.5711 30.8158 16.8946C33.7639 17.2555 35.978 18.7983 37.5105 21.3365C38.1299 22.3617 39.2096 22.6902 40.145 22.1477C41.0879 21.6003 41.379 20.4158 40.6898 19.4154C39.9883 18.3977 39.2668 17.3475 38.3663 16.5189C35.5177 13.901 32.1493 12.5722 28.2634 13.2665C23.1808 14.1748 19.7377 17.1584 17.9217 21.9935C17.7898 22.3468 17.6132 22.4115 17.2873 22.4065C16.1205 22.3916 14.9537 22.4016 13.787 22.4016C13.5332 22.4016 13.2819 22.3941 13.0282 22.4041C12.0057 22.4488 11.2196 23.2402 11.2046 24.238C11.1897 25.2533 11.9858 26.1069 13.0257 26.1293C14.3044 26.1541 15.5831 26.1342 16.8519 26.1342V29.8246L16.8444 29.8221Z" fill="#F9F9F9"/>
</svg>
