<svg width="56" height="56" viewBox="0 0 56 56" fill="none" xmlns="http://www.w3.org/2000/svg">
<path d="M40.6882 42.6711C38.3901 40.1968 35.5951 38.5473 32.2765 37.6418C36.5179 35.1227 37.7335 30.7478 36.7929 27.1797C35.737 23.1814 32.4096 20.474 28.2215 20.3216C24.3528 20.1871 20.9544 22.5718 19.5524 26.1129C18.8248 27.9418 18.7006 29.8244 19.1797 31.7339C19.8275 34.3337 21.3892 36.2612 23.7228 37.6328C23.5453 37.6956 23.4477 37.7404 23.3501 37.7673C18.6296 39.1479 15.0715 42.0167 12.6846 46.3467C11.5666 48.3818 10.9011 50.5692 10.697 52.9001C10.5728 54.3076 11.2117 55.5089 13.1637 55.4999C22.3031 55.4551 31.4513 55.482 40.5906 55.482C41.5223 55.482 42.4451 55.491 43.3768 55.482C44.273 55.4641 44.9207 54.9531 45.1869 54.0924C45.3466 53.5993 45.3378 53.0884 45.2757 52.5863C44.7876 48.7942 43.2792 45.4771 40.6882 42.689V42.6711ZM20.4841 29.4299C20.5018 25.2612 23.8648 21.9084 28.0351 21.9173C32.2144 21.9263 35.5329 25.3061 35.5241 29.5465C35.5152 33.7062 32.1168 37.1218 27.9996 37.1129C23.8293 37.1129 20.4663 33.6703 20.4841 29.421V29.4299Z" fill="white"/>
<path d="M18.8514 9.17821C20.1913 10.1554 21.5134 11.1415 22.871 12.0918C23.2791 12.3787 23.3146 12.6297 23.1638 13.069C22.6225 14.7006 22.099 16.3322 21.5844 17.9728C21.3537 18.7079 21.7263 19.3444 22.4451 19.5148C22.8887 19.6223 23.2348 19.4161 23.5631 19.1651C24.9207 18.1611 26.2871 17.157 27.6359 16.1439C27.9109 15.9378 28.0884 15.9019 28.3989 16.126C29.792 17.1749 31.2117 18.2059 32.6314 19.2279C33.3857 19.7658 34.3173 19.461 34.5037 18.6452C34.5747 18.3314 34.5214 18.0176 34.4149 17.7038C33.8914 16.1439 33.4034 14.5751 32.8621 13.0242C32.7024 12.5759 32.7734 12.3339 33.1638 12.0559C34.5303 11.0877 35.8613 10.0837 37.21 9.07959C37.769 8.66721 37.9464 8.20103 37.7867 7.69003C37.6004 7.11628 37.2188 6.87422 36.4913 6.87422C34.8054 6.87422 33.1195 6.87422 31.4336 6.90112C30.9988 6.90112 30.8391 6.76664 30.706 6.35426C30.2179 4.74954 29.6856 3.15378 29.162 1.54906C28.9402 0.867726 28.5409 0.509129 28.0085 0.500164C27.4495 0.491199 27.0325 0.849796 26.8107 1.54906C26.2871 3.18964 25.7636 4.82126 25.2667 6.4708C25.1691 6.79354 25.0183 6.91008 24.6811 6.90112C23.8115 6.87422 22.942 6.90112 22.0635 6.90112C21.194 6.90112 20.3244 6.90112 19.4459 6.90112C18.7982 6.90112 18.39 7.20592 18.2214 7.76175C18.0529 8.31757 18.2303 8.72996 18.8426 9.17821H18.8514Z" fill="white"/>
<path d="M13.7405 31.8236C14.2374 31.5995 14.4859 31.1782 14.4415 30.6492C14.2729 28.8652 14.0866 27.0812 13.8647 25.2972C13.8204 24.9296 13.8825 24.7772 14.2197 24.6248C15.7725 23.9524 17.3075 23.2532 18.8426 22.5629C19.5258 22.2581 19.8452 21.8098 19.792 21.263C19.7388 20.6713 19.3484 20.3127 18.5764 20.1513C17.1478 19.8465 15.7192 19.5507 14.2818 19.2369C13.2259 19.0128 13.2259 19.0038 13.1105 17.928C13.075 17.6501 13.0484 17.3722 13.0129 17.0943C12.871 15.7764 12.7556 14.4496 12.5781 13.1408C12.4894 12.4415 11.9215 12.0739 11.256 12.1725C10.8035 12.2443 10.5551 12.5491 10.3421 12.9166C9.49916 14.4138 8.63847 15.902 7.80439 17.3991C7.6358 17.7039 7.46721 17.8204 7.10341 17.7039C6.63314 17.5515 6.12737 17.4887 5.63934 17.3812C4.33499 17.1033 3.03064 16.8164 1.7884 16.5474C1.22939 16.5474 0.830099 16.7626 0.617143 17.2377C0.386441 17.7398 0.510665 18.188 0.865591 18.5825C2.01023 19.8644 3.14599 21.1464 4.30837 22.4105C4.59231 22.7153 4.65442 22.9484 4.42372 23.3339C3.55415 24.7952 2.72008 26.2744 1.87713 27.7536C1.53108 28.3722 1.5577 28.9011 1.93924 29.3045C2.30304 29.699 2.79994 29.7707 3.42106 29.5017C4.77865 28.9011 6.12737 28.2915 7.48496 27.6729C8.53199 27.1978 8.53199 27.1888 9.29508 28.0315C10.3421 29.1969 11.3714 30.3713 12.4273 31.5368C12.7822 31.9312 13.2348 32.0567 13.7405 31.8326V31.8236Z" fill="white"/>
<path d="M55.1159 18.6182C55.5507 18.1341 55.6128 17.6142 55.32 17.1301C55.0449 16.6728 54.5658 16.4846 53.9624 16.6101C52.3209 16.9687 50.6705 17.3004 49.0289 17.7038C48.5587 17.8204 48.3368 17.7038 48.115 17.3004C47.2987 15.8122 46.4469 14.342 45.6039 12.8628C45.3643 12.4414 45.0449 12.1635 44.5391 12.1725C43.8115 12.1725 43.4122 12.6386 43.3146 13.6158C43.1549 15.2385 42.9863 16.8521 42.8532 18.4748C42.8177 18.8961 42.6492 19.0844 42.2321 19.1651C40.5995 19.4878 38.9668 19.8375 37.343 20.1871C36.6243 20.3395 36.2516 20.716 36.1984 21.3077C36.154 21.8456 36.4646 22.267 37.1123 22.5628C38.6651 23.2621 40.2268 23.9613 41.7796 24.6606C41.9748 24.7502 42.1966 24.7771 42.1611 25.1088C41.9659 26.857 41.7973 28.6051 41.6021 30.3533C41.5223 31.0884 41.6997 31.5725 42.2232 31.8325C42.7556 32.0925 43.217 31.976 43.7406 31.3932C44.8852 30.1202 46.0298 28.8472 47.1567 27.5473C47.3785 27.2873 47.5471 27.2425 47.8577 27.3859C49.4016 28.1031 50.9633 28.8024 52.5161 29.5016C52.7823 29.6182 53.0574 29.7527 53.3679 29.6899C54.2375 29.5285 54.619 28.6589 54.1399 27.8252C53.2792 26.2922 52.4007 24.7771 51.5134 23.2621C51.3448 22.9662 51.3537 22.7959 51.5844 22.5449C52.7734 21.2539 53.9358 19.945 55.0982 18.6362L55.1159 18.6182ZM52.0369 19.7388C52.2765 19.4609 52.5161 19.183 52.7557 18.9051C52.871 18.7617 52.9864 18.6182 53.0928 18.4748C52.9775 18.6182 52.871 18.7617 52.7557 18.9051C52.525 19.192 52.2854 19.4699 52.0369 19.7388Z" fill="white"/>
</svg>
