<svg width="56" height="55" viewBox="0 0 56 55" fill="none" xmlns="http://www.w3.org/2000/svg">
<g clip-path="url(#clip0_5_141)">
<path d="M19.9433 54.9999V12.9272C19.7425 12.9172 19.5717 12.9028 19.3996 12.9028C18.0036 12.9014 16.6076 12.9057 15.2116 12.8999C14.4369 12.8956 13.8616 12.514 13.6105 11.8642C13.3494 11.187 13.5316 10.5285 14.1542 9.99343C17.8472 6.82294 21.5416 3.65533 25.2418 0.49202C25.9979 -0.154989 26.7669 -0.165031 27.5187 0.476239C31.2331 3.64816 34.9419 6.82868 38.6478 10.0106C39.2461 10.5257 39.4168 11.1798 39.1729 11.8412C38.9232 12.5183 38.3494 12.8956 37.5344 12.8985C35.9964 12.9042 34.457 12.8999 32.8329 12.8999C32.8329 13.1065 32.8329 13.293 32.8329 13.481C32.8329 14.9127 32.8228 16.3444 32.84 17.7747C32.8443 18.0889 32.7281 18.2381 32.4627 18.3931C26.2188 22.0398 22.9505 27.477 23.2202 34.7132C23.4641 41.2722 26.7296 46.1728 32.3938 49.4681C32.7123 49.6532 32.8558 49.8296 32.8429 50.2069C32.8128 51.082 32.7898 51.9629 32.8443 52.8366C32.9075 53.8365 32.5789 54.571 31.6507 54.9999H19.9419H19.9433Z" fill="#F9F9F9"/>
<path d="M10.2747 55C10.2747 44.8889 10.2747 34.7792 10.2747 24.6681C10.2747 23.2593 10.8543 22.674 12.2518 22.674C13.7166 22.674 15.1829 22.674 16.7195 22.674V55H10.2747Z" fill="#F9F9F9"/>
<path d="M0.5 36.7431C0.928981 35.8164 1.66212 35.5079 2.66212 35.5481C4.06815 35.604 5.47848 35.5624 6.9462 35.5624V55.0014H1.68221C1.15136 54.7446 0.75825 54.3501 0.5 53.8207V36.7446V36.7431Z" fill="#F9F9F9"/>
<path d="M0.5 53.8193C0.756815 54.3501 1.14993 54.7447 1.68221 55H0.5V53.8193Z" fill="#F9F9F9"/>
<path d="M40.9074 19.4518C32.9074 19.4432 26.3866 25.9563 26.3881 33.9542C26.3909 41.9292 32.8859 48.4337 40.863 48.4481C48.8845 48.4624 55.4856 41.9321 55.4985 33.9715C55.5114 26.0108 48.9304 19.4618 40.9074 19.4518ZM48.2546 38.819C47.5 40.1403 46.4383 41.1373 45.0753 41.8202C41.1786 43.7727 36.9275 41.5275 35.3708 38.2064C35.2991 38.0544 35.2317 37.9008 35.1685 37.7445C35.0184 37.3715 34.7381 37.1845 34.3278 37.1835C33.6994 37.1835 33.0724 37.1835 32.444 37.1835C31.6736 37.1835 31.1772 36.7546 31.1829 36.0975C31.1886 35.4505 31.6764 35.0316 32.4268 35.0302C33.0767 35.0288 33.7281 35.0273 34.378 35.0245C34.3981 35.0245 34.4196 35.0101 34.4397 35.0029V32.8754C33.708 32.8754 32.9706 32.8869 32.2331 32.8725C31.6334 32.8611 31.1729 32.369 31.1829 31.7822C31.1915 31.2084 31.6449 30.7508 32.2345 30.7249C32.3795 30.7192 32.5258 30.7235 32.6721 30.7235C33.345 30.7235 34.0179 30.7178 34.6908 30.7264C34.8787 30.7292 34.9806 30.6905 35.0566 30.4882C36.104 27.7008 38.0911 25.9793 41.0208 25.4571C43.2632 25.0568 45.2044 25.8243 46.8472 27.3321C47.368 27.8098 47.7826 28.4152 48.1872 29.002C48.5846 29.5773 48.4168 30.2616 47.873 30.5772C47.335 30.8899 46.7109 30.7006 46.3536 30.1095C45.4698 28.6476 44.1929 27.7567 42.4928 27.5487C40.9691 27.3622 39.6822 27.9375 38.5645 28.9331C37.9935 29.4424 37.5488 30.1081 37.3335 30.7077C37.4569 30.7135 37.5746 30.7235 37.6908 30.7235C39.0595 30.7235 40.4268 30.7235 41.7955 30.7235C42.5344 30.7235 43.0279 31.1625 43.0222 31.8095C43.0165 32.4436 42.5272 32.8754 41.8099 32.8754C40.2173 32.8769 38.6248 32.8754 37.0323 32.8754H36.6162V35.0288C36.7855 35.0288 36.906 35.0288 37.0265 35.0288C38.6635 35.0288 40.3005 35.0245 41.939 35.0316C42.5071 35.0345 42.9591 35.4491 43.0179 35.99C43.0767 36.5308 42.7109 37.0401 42.1685 37.1563C42.0394 37.1835 41.9017 37.1807 41.7668 37.1821C40.2977 37.1835 38.83 37.1821 37.2546 37.1821C37.5244 37.6096 37.7252 38.007 37.9978 38.347C39.0853 39.7056 40.5057 40.4817 42.2546 40.3799C44.0093 40.278 45.3565 39.3814 46.3048 37.8922C46.4397 37.6814 46.6076 37.4647 46.8127 37.3299C47.2188 37.0645 47.7367 37.1534 48.081 37.4891C48.4411 37.8392 48.5143 38.3542 48.2503 38.8176L48.2546 38.819Z" fill="#F9F9F9"/>
</g>
<defs>
<clipPath id="clip0_5_141">
<rect width="55" height="55" fill="white" transform="translate(0.5)"/>
</clipPath>
</defs>
</svg>
