<svg width="1164" height="83" viewBox="0 0 1164 83" fill="none" xmlns="http://www.w3.org/2000/svg">
<path d="M0 80.38V70.38L41.47 11.16H1.75V1.65002H53.91V11.04L11.99 70.82H54.89V80.38H0Z" fill="#9F1313"/>
<path d="M107.37 80.38V1.66003H155.48V11.17H117.9V34.15H150.03V43.7101H117.9V70.83H155.48V80.39H107.37V80.38Z" fill="#9F1313"/>
<path d="M237.61 11.16V80.38H227.15V11.16H201.04V1.65002H263.71V11.16H237.61Z" fill="#9F1313"/>
<path d="M305.06 80.38L330.48 1.66003H343.97L369.16 80.38H358.17L336.96 11.9L315.68 80.38H305.05H305.06Z" fill="#9F1313"/>
<path d="M496.6 11.16V34.14H528.17V43.7H496.6V80.38H486.07V1.66003H533.74V11.17H496.6V11.16Z" fill="#FFFFFF"/>
<path d="M612.84 80.38H580.66V71.2801H591.51V10.6H580.66V1.66003H612.84V10.6H601.99V71.2801H612.84V80.38Z" fill="#FFFFFF"/>
<path d="M710.77 80.38L675.22 12.82V80.38H665.1V1.66003H680.52L713.11 63.5V1.66003H723.23V80.38H710.77Z" fill="#FFFFFF"/>
<path d="M772.6 80.38L799.5 1.66003H813.15L840.05 80.38H828.96L822.15 59.9001H790.07L783.36 80.38H772.61M793.25 50.3401H818.84L806.04 12.01L793.25 50.3401Z" fill="#FFFFFF"/>
<path d="M935.08 80.38L899.53 12.82V80.38H889.41V1.66003H904.81L937.41 63.5V1.66003H947.53V80.38H935.07H935.08Z" fill="#FFFFFF"/>
<path d="M1064.69 66.61C1062.19 70.63 1059.63 73.68 1057.04 75.74C1054.43 77.8 1051.42 79.37 1047.96 80.44C1044.52 81.5 1040.46 82.02 1035.8 82.02C1024.01 82.02 1015.31 78.61 1009.72 71.81C1004.13 65 1001.34 54.74 1001.34 41.01C1001.34 27.28 1004.12 17.05 1009.67 10.24C1015.22 3.40999 1023.77 0 1035.34 0C1039.94 0 1044.03 0.559991 1047.63 1.70999C1051.24 2.83999 1054.27 4.40001 1056.76 6.39001C1059.25 8.38001 1061.51 11.18 1063.56 14.79L1054.92 20.46C1053.25 17.66 1051.56 15.54 1049.86 14.07C1048.14 12.6 1046.1 11.44 1043.71 10.59C1041.32 9.74 1038.53 9.31 1035.35 9.31C1027.47 9.31 1021.67 11.94 1017.98 17.2C1014.28 22.45 1012.44 30.38 1012.44 41C1012.44 51.62 1014.26 59.36 1017.89 64.68C1021.54 70.01 1027.4 72.67 1035.47 72.67C1039.95 72.67 1043.83 71.8 1047.12 70.03C1050.42 68.28 1053.39 65.22 1055.99 60.9L1064.69 66.59V66.61Z" fill="#FFFFFF"/>
<path d="M1115.59 80.38V1.66003H1163.7V11.17H1126.1V34.15H1158.25V43.7101H1126.1V70.83H1163.7V80.39H1115.59V80.38Z" fill="#FFFFFF"/>
</svg>
